<svg xmlns="http://www.w3.org/2000/svg" xmlns:xlink="http://www.w3.org/1999/xlink" width="4000" zoomAndPan="magnify" viewBox="0 0 3000 2999.999989" height="4000" preserveAspectRatio="xMidYMid meet" version="1.0"><defs><g/><clipPath id="565a8f7f55"><path d="M 523.246094 171.132812 L 2477 171.132812 L 2477 2124.632812 L 523.246094 2124.632812 Z M 523.246094 171.132812 " clip-rule="nonzero"/></clipPath><clipPath id="01dee340dd"><path d="M 2476.753906 1147.894531 C 2476.753906 1687.316406 2039.4375 2124.632812 1500 2124.632812 C 960.554688 2124.632812 523.246094 1687.316406 523.246094 1147.894531 C 523.246094 608.445312 960.554688 171.132812 1500 171.132812 C 2039.445312 171.132812 2476.753906 608.445312 2476.753906 1147.894531 Z M 2476.753906 1147.894531 " clip-rule="nonzero"/></clipPath><clipPath id="dfe78d57c3"><path d="M 1474 430.496094 L 1509 430.496094 L 1509 659 L 1474 659 Z M 1474 430.496094 " clip-rule="nonzero"/></clipPath></defs><g clip-path="url(#565a8f7f55)"><g clip-path="url(#01dee340dd)"><path fill="#5c0601" d="M 523.246094 171.132812 L 2476.746094 171.132812 L 2476.746094 2124.632812 L 523.246094 2124.632812 Z M 523.246094 171.132812 " fill-opacity="1" fill-rule="nonzero"/></g></g><path fill="#f28e1c" d="M 799.722656 1415.671875 C 799.988281 1414.675781 799.640625 1414.058594 799.640625 1414.058594 C 772.777344 1406.84375 750.402344 1388.796875 736.78125 1363.246094 C 723.359375 1338.070312 720.128906 1308.695312 727.671875 1280.539062 L 765.667969 1138.746094 C 773.152344 1110.769531 800.972656 1093.859375 827.730469 1100.988281 L 879.917969 1114.972656 C 879.789062 1114.925781 880.398438 1114.558594 880.664062 1113.574219 C 880.664062 1113.574219 880.730469 1113.421875 880.753906 1113.339844 L 892.492188 1069.539062 C 887.339844 1069.847656 882.105469 1069.566406 876.949219 1068.1875 L 789.722656 1044.8125 C 768.6875 1039.113281 747.046875 1051.699219 741.417969 1072.703125 L 682.0625 1294.222656 C 673.136719 1327.53125 677.789062 1362.464844 695.175781 1392.578125 C 712.5625 1422.691406 740.488281 1444.191406 773.804688 1453.117188 C 778.960938 1454.5 783.632812 1456.875 787.941406 1459.714844 L 799.6875 1415.878906 C 799.6875 1415.878906 799.703125 1415.742188 799.722656 1415.671875 Z M 799.722656 1415.671875 " fill-opacity="1" fill-rule="nonzero"/><path fill="#f28e1c" d="M 1550.46875 884.203125 C 1610.289062 915.386719 1640.710938 983.792969 1623.085938 1049.578125 C 1621.964844 1053.761719 1620.613281 1057.839844 1619.144531 1061.863281 C 1631.453125 1053.65625 1646.382812 1050.304688 1661.289062 1053.152344 C 1677.792969 1056.324219 1694.46875 1055.675781 1710.84375 1051.289062 C 1732.578125 1045.472656 1751.78125 1033.394531 1766.375 1016.386719 C 1783.824219 996.066406 1812.511719 990.464844 1836.121094 1002.75 C 1860.808594 1015.574219 1889.175781 1018.695312 1915.996094 1011.503906 C 1926.445312 1008.707031 1946.523438 998.222656 1982.828125 964.15625 C 1986.640625 960.578125 1988.214844 959.097656 1991.578125 957.871094 C 2065.460938 931.105469 2096.066406 878.777344 2077.78125 810.53125 C 2069.488281 779.574219 2049.640625 753.707031 2021.886719 737.6875 C 1994.148438 721.675781 1961.824219 717.429688 1930.863281 725.71875 L 1930.855469 725.71875 C 1927.058594 726.734375 1923.386719 727.980469 1919.789062 729.367188 C 1912.988281 731.933594 1905.269531 731.164062 1899.121094 727.296875 C 1873.3125 710.972656 1842.953125 706.316406 1813.628906 714.203125 C 1811.035156 714.894531 1808.5 715.707031 1806.007812 716.597656 C 1800.933594 718.371094 1795.480469 718.328125 1790.519531 716.554688 C 1768.976562 708.773438 1746.007812 707.769531 1724.0625 713.660156 C 1693.164062 721.925781 1667.296875 743.199219 1653.101562 772.023438 C 1647.773438 782.84375 1635.222656 787.753906 1623.945312 783.460938 C 1611.109375 778.535156 1597.710938 776.0625 1584.261719 776.0625 C 1574.636719 776.0625 1564.988281 777.332031 1555.492188 779.878906 C 1543.917969 782.976562 1533.28125 787.890625 1523.6875 794.113281 C 1541.9375 819.644531 1551.890625 851.078125 1550.46875 884.203125 Z M 1550.46875 884.203125 " fill-opacity="1" fill-rule="nonzero"/><path fill="#f28e1c" d="M 2190.707031 1553.566406 L 2190.722656 1553.371094 C 2190.625 1552.992188 2190.535156 1552.675781 2190.453125 1552.363281 L 2170.828125 1479.109375 L 2170.761719 1478.964844 L 2054.851562 1046.375 L 2054.84375 1046.359375 L 2054.84375 1046.339844 L 2035.585938 974.46875 C 2026.453125 979.476562 2016.621094 984.019531 2006.042969 988.007812 L 2005.597656 988.429688 C 1971.941406 1020.003906 1945.449219 1038.0625 1924.609375 1043.652344 C 1889.71875 1052.988281 1852.847656 1048.960938 1820.773438 1032.277344 C 1810.925781 1027.144531 1798.941406 1029.539062 1791.628906 1038.050781 C 1772.65625 1060.171875 1747.695312 1075.867188 1719.453125 1083.4375 C 1698.207031 1089.125 1676.539062 1089.9375 1655.042969 1085.84375 C 1645.253906 1083.949219 1635.160156 1088.800781 1629.292969 1098.136719 C 1624.5625 1105.667969 1618.945312 1112.527344 1612.949219 1119.042969 C 1633.453125 1150.390625 1638.921875 1189.800781 1626.78125 1226.328125 L 1741.671875 1655.09375 C 1744.050781 1663.976562 1738.785156 1673.097656 1729.90625 1675.480469 C 1728.464844 1675.859375 1727.015625 1676.042969 1725.589844 1676.042969 C 1718.246094 1676.042969 1711.519531 1671.148438 1709.53125 1663.714844 L 1603.378906 1267.542969 C 1597.242188 1274.625 1590.3125 1280.945312 1582.789062 1286.453125 L 1689.925781 1686.300781 C 1696.480469 1710.761719 1712.164062 1731.199219 1734.09375 1743.863281 C 1756.011719 1756.515625 1781.550781 1759.90625 1806.019531 1753.320312 L 2123.460938 1668.265625 C 2172.84375 1655.039062 2202.621094 1605.675781 2191.242188 1555.902344 Z M 1840.277344 1645.910156 C 1838.835938 1646.289062 1837.382812 1646.472656 1835.960938 1646.472656 C 1828.617188 1646.472656 1821.890625 1641.578125 1819.902344 1634.144531 L 1686.140625 1134.945312 C 1683.761719 1126.0625 1689.027344 1116.941406 1697.902344 1114.558594 C 1706.765625 1112.25 1715.914062 1117.449219 1718.277344 1126.324219 L 1852.039062 1625.523438 C 1854.417969 1634.40625 1849.152344 1643.527344 1840.277344 1645.910156 Z M 2049.445312 1589.863281 C 2048.003906 1590.242188 2046.550781 1590.425781 2045.128906 1590.425781 C 2037.785156 1590.425781 2031.058594 1585.53125 2029.070312 1578.101562 L 1895.308594 1078.898438 C 1892.929688 1070.015625 1898.195312 1060.894531 1907.074219 1058.515625 C 1915.945312 1056.207031 1925.074219 1061.40625 1927.449219 1070.277344 L 2061.207031 1569.476562 C 2063.585938 1578.359375 2058.320312 1587.480469 2049.445312 1589.863281 Z M 2150.386719 1562.816406 C 2148.945312 1563.195312 2147.492188 1563.378906 2146.070312 1563.378906 C 2138.722656 1563.378906 2131.996094 1558.484375 2130.007812 1551.050781 L 1996.25 1051.851562 C 1993.871094 1042.96875 1999.136719 1033.847656 2008.011719 1031.464844 C 2016.898438 1029.125 2026.015625 1034.359375 2028.386719 1043.230469 L 2162.148438 1542.429688 C 2164.527344 1551.3125 2159.261719 1560.433594 2150.386719 1562.816406 Z M 2150.386719 1562.816406 " fill-opacity="1" fill-rule="nonzero"/><path fill="#f28e1c" d="M 2249.023438 1081.8125 C 2243.390625 1060.800781 2221.71875 1048.234375 2200.714844 1053.921875 L 2113.484375 1077.296875 C 2108.507812 1078.625 2103.230469 1078.984375 2097.953125 1078.667969 L 2109.699219 1122.511719 C 2109.699219 1122.511719 2109.753906 1122.628906 2109.769531 1122.695312 C 2110.035156 1123.679688 2110.640625 1124.039062 2110.777344 1124.082031 L 2162.699219 1110.105469 C 2175.820312 1106.597656 2189.570312 1108.71875 2201.417969 1116.109375 C 2212.914062 1123.269531 2221.203125 1134.542969 2224.769531 1147.867188 L 2262.761719 1289.640625 C 2270.308594 1317.804688 2267.074219 1347.179688 2253.652344 1372.355469 C 2240.03125 1397.90625 2217.664062 1415.953125 2190.664062 1423.1875 L 2190.667969 1423.1875 C 2190.667969 1423.1875 2190.457031 1423.796875 2190.71875 1424.769531 C 2190.742188 1424.863281 2190.738281 1424.957031 2190.738281 1424.957031 L 2202.492188 1468.824219 C 2206.800781 1465.984375 2211.472656 1463.609375 2216.628906 1462.226562 C 2285.730469 1443.714844 2326.890625 1372.429688 2308.378906 1303.332031 Z M 2249.023438 1081.8125 " fill-opacity="1" fill-rule="nonzero"/><path fill="#f28e1c" d="M 1394.046875 1232.355469 L 1280.902344 1654.609375 C 1278.914062 1662.039062 1272.1875 1666.933594 1264.84375 1666.933594 C 1263.417969 1666.933594 1261.96875 1666.75 1260.527344 1666.371094 C 1251.652344 1663.988281 1246.386719 1654.867188 1248.765625 1645.984375 L 1382.523438 1146.785156 C 1384.042969 1141.113281 1388.328125 1136.960938 1393.539062 1135.292969 C 1393.125 1129.03125 1390.671875 1123.132812 1385.910156 1118.773438 C 1376.371094 1110.019531 1368.042969 1100.011719 1361.140625 1089.027344 C 1355.28125 1079.679688 1345.175781 1074.847656 1335.394531 1076.722656 C 1313.925781 1080.816406 1292.253906 1080.039062 1270.980469 1074.328125 C 1242.734375 1066.757812 1217.777344 1051.0625 1198.800781 1028.941406 C 1191.492188 1020.425781 1179.507812 1018.035156 1169.660156 1023.167969 C 1137.585938 1039.859375 1100.710938 1043.890625 1065.828125 1034.542969 C 1044.984375 1028.953125 1018.492188 1010.894531 984.835938 979.320312 L 984.394531 978.898438 C 973.816406 974.910156 963.984375 970.371094 954.855469 965.359375 L 935.589844 1037.253906 L 935.589844 1037.265625 L 819.675781 1469.855469 C 819.660156 1469.90625 819.625 1469.945312 819.625 1469.945312 L 809.113281 1509.171875 L 809.109375 1509.207031 L 809.097656 1509.230469 L 800.027344 1543.089844 C 799.921875 1543.46875 799.816406 1543.859375 799.710938 1544.261719 L 799.730469 1544.453125 L 799.191406 1546.792969 C 787.820312 1596.570312 817.589844 1645.929688 866.976562 1659.15625 L 1184.417969 1744.210938 C 1208.871094 1750.753906 1234.417969 1747.40625 1256.347656 1734.742188 C 1278.273438 1722.089844 1293.957031 1701.640625 1300.511719 1677.191406 L 1411.527344 1262.871094 C 1409.460938 1260.214844 1407.398438 1257.542969 1405.542969 1254.703125 C 1400.914062 1247.617188 1397.105469 1240.113281 1394.046875 1232.355469 Z M 860.429688 1541.941406 C 858.445312 1549.375 851.71875 1554.269531 844.371094 1554.269531 C 842.949219 1554.269531 841.496094 1554.085938 840.054688 1553.707031 C 831.179688 1551.324219 825.914062 1542.203125 828.292969 1533.320312 L 962.046875 1034.121094 C 964.421875 1025.246094 973.5625 1020.027344 982.421875 1022.355469 C 991.300781 1024.738281 996.5625 1033.859375 994.1875 1042.742188 Z M 1105.085938 1072.453125 L 971.324219 1571.65625 C 969.339844 1579.085938 962.613281 1583.980469 955.265625 1583.980469 C 953.84375 1583.980469 952.390625 1583.796875 950.949219 1583.417969 C 942.074219 1581.035156 936.808594 1571.914062 939.1875 1563.03125 L 1072.949219 1063.832031 C 1075.320312 1054.960938 1084.457031 1049.738281 1093.324219 1052.070312 C 1102.199219 1054.453125 1107.464844 1063.574219 1105.085938 1072.453125 Z M 1160.574219 1622.359375 C 1158.585938 1629.792969 1151.859375 1634.6875 1144.515625 1634.6875 C 1143.089844 1634.6875 1141.640625 1634.503906 1140.199219 1634.125 C 1131.320312 1631.742188 1126.058594 1622.621094 1128.433594 1613.738281 L 1262.195312 1114.539062 C 1264.566406 1105.664062 1273.699219 1100.445312 1282.570312 1102.773438 C 1291.449219 1105.15625 1296.710938 1114.277344 1294.335938 1123.160156 Z M 1160.574219 1622.359375 " fill-opacity="1" fill-rule="nonzero"/><path fill="#f28e1c" d="M 1569.050781 1118.675781 C 1564.328125 1114.527344 1561.511719 1108.816406 1561.109375 1102.601562 C 1560.707031 1096.394531 1562.773438 1090.382812 1566.910156 1085.679688 C 1578.390625 1072.714844 1586.46875 1057.679688 1590.945312 1040.964844 C 1604.976562 988.59375 1579.4375 934.0625 1530.222656 911.316406 C 1521.339844 907.222656 1515.964844 897.914062 1516.859375 888.167969 C 1521.765625 834.179688 1487.316406 784.796875 1434.941406 770.769531 C 1412.179688 764.660156 1388.515625 765.90625 1366.492188 774.34375 C 1355.195312 778.6875 1342.667969 773.746094 1337.339844 762.914062 C 1323.132812 734.089844 1297.277344 712.816406 1266.382812 704.550781 C 1244.429688 698.65625 1221.449219 699.65625 1199.953125 707.433594 C 1194.90625 709.25 1189.402344 709.25 1184.398438 707.453125 C 1181.976562 706.609375 1179.425781 705.785156 1176.8125 705.09375 C 1147.46875 697.21875 1117.113281 701.886719 1091.296875 718.1875 C 1085.191406 722.078125 1077.464844 722.847656 1070.671875 720.246094 C 1067.082031 718.882812 1063.394531 717.625 1059.578125 716.605469 L 1059.570312 716.605469 C 1028.617188 708.320312 996.296875 712.578125 968.546875 728.578125 C 940.792969 744.597656 920.945312 770.464844 912.652344 801.421875 C 894.367188 869.664062 924.972656 921.996094 998.839844 948.761719 C 1002.21875 949.984375 1003.792969 951.46875 1007.605469 955.042969 C 1043.910156 989.113281 1063.988281 999.597656 1074.441406 1002.390625 C 1101.257812 1009.585938 1129.625 1006.476562 1154.3125 993.640625 C 1177.9375 981.34375 1206.621094 986.945312 1224.054688 1007.277344 C 1238.652344 1024.285156 1257.855469 1036.351562 1279.59375 1042.179688 C 1295.96875 1046.578125 1312.644531 1047.195312 1329.148438 1044.03125 C 1332.664062 1043.359375 1336.183594 1043.035156 1339.671875 1043.035156 C 1359.375 1043.035156 1378.105469 1053.453125 1389.328125 1071.328125 C 1394.644531 1079.808594 1401.0625 1087.511719 1408.402344 1094.25 C 1425.550781 1109.976562 1431.546875 1134.621094 1423.671875 1157.042969 C 1422.945312 1159.121094 1422.289062 1161.246094 1421.703125 1163.421875 C 1415.042969 1188.28125 1419.304688 1214.929688 1433.402344 1236.507812 C 1447.691406 1258.378906 1469.933594 1272.621094 1496.035156 1276.609375 C 1536.074219 1282.726562 1576.679688 1260.1875 1592.515625 1223.023438 C 1608.054688 1186.550781 1598.628906 1144.617188 1569.050781 1118.675781 Z M 1569.050781 1118.675781 " fill-opacity="1" fill-rule="nonzero"/><path fill="#f28e1c" d="M 1318.636719 445.945312 C 1310.492188 450.199219 1307.34375 460.253906 1311.601562 468.398438 L 1399.277344 636.09375 C 1402.246094 641.769531 1408.035156 645.015625 1414.035156 645.015625 C 1416.628906 645.015625 1419.269531 644.410156 1421.726562 643.121094 C 1429.871094 638.863281 1433.019531 628.8125 1428.761719 620.667969 L 1341.085938 452.972656 C 1336.839844 444.851562 1326.78125 441.675781 1318.636719 445.945312 Z M 1318.636719 445.945312 " fill-opacity="1" fill-rule="nonzero"/><path fill="#f28e1c" d="M 1641.804688 452.972656 L 1554.125 620.667969 C 1549.867188 628.8125 1553.011719 638.863281 1561.160156 643.121094 C 1563.617188 644.410156 1566.253906 645.015625 1568.851562 645.015625 C 1574.84375 645.015625 1580.640625 641.769531 1583.609375 636.09375 L 1671.289062 468.398438 C 1675.546875 460.253906 1672.398438 450.199219 1664.253906 445.945312 C 1656.097656 441.65625 1646.050781 444.839844 1641.804688 452.972656 Z M 1641.804688 452.972656 " fill-opacity="1" fill-rule="nonzero"/><g clip-path="url(#dfe78d57c3)"><path fill="#f28e1c" d="M 1474.804688 447.136719 L 1474.804688 641.929688 C 1474.804688 651.117188 1482.25 658.570312 1491.441406 658.570312 C 1500.632812 658.570312 1508.082031 651.117188 1508.082031 641.929688 L 1508.082031 447.136719 C 1508.082031 437.949219 1500.632812 430.496094 1491.441406 430.496094 C 1482.25 430.496094 1474.804688 437.949219 1474.804688 447.136719 Z M 1474.804688 447.136719 " fill-opacity="1" fill-rule="nonzero"/></g><g fill="#5c0601" fill-opacity="1"><g transform="translate(428.523458, 2512.901638)"><g><path d="M 23.902344 0 L 185.574219 0 C 256.414062 0 296.394531 -31.289062 296.394531 -86.050781 C 296.394531 -125.164062 275.101562 -150.804688 237.289062 -158.191406 L 237.289062 -158.628906 C 270.753906 -167.320312 289.441406 -190.789062 289.441406 -225.121094 C 289.441406 -279.011719 250.761719 -309.433594 181.660156 -309.433594 L 23.902344 -309.433594 Z M 98.21875 -181.226562 L 98.21875 -254.675781 L 169.925781 -254.675781 C 199.046875 -254.675781 215.558594 -241.203125 215.558594 -218.601562 C 215.558594 -194.699219 199.046875 -181.226562 169.925781 -181.226562 Z M 98.21875 -55.195312 L 98.21875 -133.855469 L 172.101562 -133.855469 C 204.261719 -133.855469 222.515625 -119.515625 222.515625 -93.4375 C 222.515625 -69.101562 204.261719 -55.195312 172.101562 -55.195312 Z M 98.21875 -55.195312 "/></g></g></g><g fill="#5c0601" fill-opacity="1"><g transform="translate(735.774552, 2512.901638)"><g><path d="M 142.980469 8.691406 C 190.789062 8.691406 232.507812 -11.734375 250.328125 -41.285156 L 212.519531 -70.40625 C 199.480469 -52.585938 173.402344 -39.984375 145.589844 -39.984375 C 109.082031 -39.984375 82.140625 -60.84375 78.226562 -93.003906 L 242.503906 -93.003906 C 244.242188 -99.957031 245.546875 -109.519531 245.546875 -118.210938 C 245.113281 -185.136719 199.480469 -231.207031 129.945312 -231.207031 C 58.671875 -231.207031 9.5625 -182.964844 9.996094 -112.5625 C 9.996094 -40.851562 64.753906 8.691406 142.980469 8.691406 Z M 77.792969 -131.25 C 81.703125 -162.539062 102.128906 -183.835938 129.945312 -183.835938 C 157.324219 -183.835938 176.011719 -164.277344 178.183594 -131.25 Z M 77.792969 -131.25 "/></g></g></g><g fill="#5c0601" fill-opacity="1"><g transform="translate(994.352174, 2512.901638)"><g><path d="M 130.378906 8.691406 C 162.539062 8.691406 194.699219 -6.519531 210.34375 -31.726562 L 190.351562 -73.445312 C 179.921875 -54.324219 165.148438 -44.761719 145.15625 -44.761719 C 125.597656 -44.761719 110.386719 -59.539062 110.386719 -83.878906 L 110.386719 -172.101562 L 198.609375 -172.101562 L 198.609375 -222.515625 L 110.386719 -222.515625 L 110.386719 -298.132812 L 43.894531 -283.792969 L 43.894531 -222.515625 L 2.171875 -222.515625 L 2.171875 -172.101562 L 43.894531 -172.101562 L 43.894531 -73.445312 C 43.894531 -23.035156 76.921875 8.691406 130.378906 8.691406 Z M 130.378906 8.691406 "/></g></g></g><g fill="#5c0601" fill-opacity="1"><g transform="translate(1209.905959, 2512.901638)"><g><path d="M 130.378906 8.691406 C 162.539062 8.691406 194.699219 -6.519531 210.34375 -31.726562 L 190.351562 -73.445312 C 179.921875 -54.324219 165.148438 -44.761719 145.15625 -44.761719 C 125.597656 -44.761719 110.386719 -59.539062 110.386719 -83.878906 L 110.386719 -172.101562 L 198.609375 -172.101562 L 198.609375 -222.515625 L 110.386719 -222.515625 L 110.386719 -298.132812 L 43.894531 -283.792969 L 43.894531 -222.515625 L 2.171875 -222.515625 L 2.171875 -172.101562 L 43.894531 -172.101562 L 43.894531 -73.445312 C 43.894531 -23.035156 76.921875 8.691406 130.378906 8.691406 Z M 130.378906 8.691406 "/></g></g></g><g fill="#5c0601" fill-opacity="1"><g transform="translate(1425.459745, 2512.901638)"><g><path d="M 142.980469 8.691406 C 190.789062 8.691406 232.507812 -11.734375 250.328125 -41.285156 L 212.519531 -70.40625 C 199.480469 -52.585938 173.402344 -39.984375 145.589844 -39.984375 C 109.082031 -39.984375 82.140625 -60.84375 78.226562 -93.003906 L 242.503906 -93.003906 C 244.242188 -99.957031 245.546875 -109.519531 245.546875 -118.210938 C 245.113281 -185.136719 199.480469 -231.207031 129.945312 -231.207031 C 58.671875 -231.207031 9.5625 -182.964844 9.996094 -112.5625 C 9.996094 -40.851562 64.753906 8.691406 142.980469 8.691406 Z M 77.792969 -131.25 C 81.703125 -162.539062 102.128906 -183.835938 129.945312 -183.835938 C 157.324219 -183.835938 176.011719 -164.277344 178.183594 -131.25 Z M 77.792969 -131.25 "/></g></g></g><g fill="#5c0601" fill-opacity="1"><g transform="translate(1684.037453, 2512.901638)"><g><path d="M 143.417969 -229.46875 C 116.039062 -229.46875 93.003906 -213.386719 80.835938 -186.441406 L 80.402344 -186.441406 L 70.40625 -222.515625 L 17.382812 -222.515625 L 17.382812 0 L 83.878906 0 L 83.878906 -121.253906 C 83.878906 -157.757812 99.089844 -179.488281 123.859375 -179.488281 C 142.980469 -179.488281 155.585938 -163.84375 157.757812 -136.464844 L 213.820312 -151.675781 C 208.605469 -201.21875 182.097656 -229.46875 143.417969 -229.46875 Z M 143.417969 -229.46875 "/></g></g></g><g fill="#5c0601" fill-opacity="1"><g transform="translate(1904.371701, 2512.901638)"><g><path d="M 150.371094 10.863281 C 229.902344 10.863281 285.53125 -28.25 285.53125 -93.003906 C 285.53125 -143.417969 253.371094 -172.101562 182.964844 -183.835938 L 139.070312 -192.09375 C 106.910156 -198.175781 93.003906 -208.605469 93.003906 -227.292969 C 93.003906 -249.457031 112.125 -265.539062 142.546875 -265.539062 C 172.535156 -265.539062 195.570312 -246.417969 199.480469 -216.429688 L 265.972656 -231.207031 C 258.152344 -285.09375 208.171875 -320.296875 143.417969 -320.296875 C 71.707031 -320.296875 19.992188 -281.183594 19.992188 -220.339844 C 19.992188 -171.664062 50.414062 -144.285156 118.644531 -131.25 L 161.671875 -122.992188 C 198.175781 -115.601562 213.386719 -104.304688 213.386719 -85.179688 C 213.386719 -61.277344 190.351562 -44.328125 153.414062 -44.328125 C 112.125 -44.328125 81.703125 -68.667969 77.359375 -105.605469 L 9.5625 -93.003906 C 16.515625 -26.074219 73.445312 10.863281 150.371094 10.863281 Z M 150.371094 10.863281 "/></g></g></g><g fill="#5c0601" fill-opacity="1"><g transform="translate(2196.412296, 2512.901638)"><g><path d="M 52.152344 -252.933594 C 75.621094 -252.933594 91.699219 -268.144531 91.699219 -290.746094 C 91.699219 -313.777344 75.621094 -328.988281 52.152344 -328.988281 C 28.683594 -328.988281 13.039062 -313.777344 13.039062 -290.746094 C 13.039062 -268.144531 28.683594 -252.933594 52.152344 -252.933594 Z M 19.121094 0 L 85.179688 0 L 85.179688 -222.515625 L 19.121094 -222.515625 Z M 19.121094 0 "/></g></g></g><g fill="#5c0601" fill-opacity="1"><g transform="translate(2301.147129, 2512.901638)"><g><path d="M 17.382812 91.265625 L 83.878906 91.265625 L 83.878906 -42.589844 L 84.3125 -42.589844 C 99.957031 -10.429688 126.902344 6.519531 161.234375 6.519531 C 219.472656 6.519531 260.324219 -40.851562 260.324219 -111.257812 C 260.324219 -182.097656 219.472656 -229.03125 161.234375 -229.03125 C 126.03125 -229.03125 99.089844 -212.082031 83.441406 -179.921875 L 83.007812 -179.921875 L 73.011719 -222.515625 L 17.382812 -222.515625 Z M 137.332031 -49.980469 C 104.738281 -49.980469 81.269531 -76.488281 81.269531 -111.257812 C 81.269531 -146.460938 104.738281 -172.96875 137.332031 -172.96875 C 170.363281 -172.96875 193.832031 -146.894531 193.832031 -111.257812 C 193.832031 -76.488281 170.363281 -49.980469 137.332031 -49.980469 Z M 137.332031 -49.980469 "/></g></g></g><g fill="#5c0601" fill-opacity="1"><g transform="translate(899.897351, 2785.415183)"><g><path d="M 69.953125 -147.375 C 84.867188 -147.375 97.6875 -144.703125 108.40625 -139.359375 C 119.125 -134.015625 127.390625 -125.863281 133.203125 -114.90625 C 139.015625 -103.957031 141.921875 -90.21875 141.921875 -73.6875 C 141.921875 -57.15625 139.015625 -43.410156 133.203125 -32.453125 C 127.390625 -21.503906 119.125 -13.359375 108.40625 -8.015625 C 97.6875 -2.671875 84.867188 0 69.953125 0 L 22.28125 0 L 22.28125 -147.375 Z M 68.234375 -14.71875 C 80.535156 -14.71875 90.71875 -16.628906 98.78125 -20.453125 C 106.84375 -24.285156 112.957031 -30.535156 117.125 -39.203125 C 121.289062 -47.878906 123.375 -59.375 123.375 -73.6875 C 123.375 -88.0625 121.289062 -99.566406 117.125 -108.203125 C 112.957031 -116.835938 106.84375 -123.070312 98.78125 -126.90625 C 90.71875 -130.738281 80.535156 -132.65625 68.234375 -132.65625 L 39.609375 -132.65625 L 39.609375 -14.71875 Z M 68.234375 -14.71875 "/></g></g></g><g fill="#5c0601" fill-opacity="1"><g transform="translate(1056.53536, 2785.415183)"><g><path d="M 27.625 -132.65625 C 24.125 -132.65625 21.28125 -133.742188 19.09375 -135.921875 C 16.914062 -138.109375 15.828125 -140.882812 15.828125 -144.25 C 15.828125 -147.601562 16.914062 -150.375 19.09375 -152.5625 C 21.28125 -154.75 24.125 -155.84375 27.625 -155.84375 C 31.113281 -155.84375 33.945312 -154.75 36.125 -152.5625 C 38.3125 -150.375 39.40625 -147.601562 39.40625 -144.25 C 39.40625 -140.882812 38.3125 -138.109375 36.125 -135.921875 C 33.945312 -133.742188 31.113281 -132.65625 27.625 -132.65625 Z M 19.359375 0 L 19.359375 -111.1875 L 35.78125 -111.1875 L 35.78125 0 Z M 19.359375 0 "/></g></g></g><g fill="#5c0601" fill-opacity="1"><g transform="translate(1111.671145, 2785.415183)"><g><path d="M 50.703125 2.109375 C 43.710938 2.109375 37.242188 1.1875 31.296875 -0.65625 C 25.347656 -2.5 20.320312 -5.035156 16.21875 -8.265625 C 12.125 -11.492188 9.238281 -15.125 7.5625 -19.15625 L 17.234375 -29.234375 L 19.359375 -29.234375 C 22.984375 -23.722656 27.347656 -19.570312 32.453125 -16.78125 C 37.566406 -13.988281 43.648438 -12.59375 50.703125 -12.59375 C 58.898438 -12.59375 65.128906 -14.1875 69.390625 -17.375 C 73.660156 -20.570312 75.796875 -25.03125 75.796875 -30.75 C 75.796875 -35.113281 74.503906 -38.722656 71.921875 -41.578125 C 69.335938 -44.429688 65.15625 -46.566406 59.375 -47.984375 L 40.625 -52.625 C 30.613281 -55.039062 23.304688 -58.867188 18.703125 -64.109375 C 14.097656 -69.347656 11.796875 -75.832031 11.796875 -83.5625 C 11.796875 -89.613281 13.335938 -94.875 16.421875 -99.34375 C 19.515625 -103.8125 23.96875 -107.253906 29.78125 -109.671875 C 35.59375 -112.085938 42.5 -113.296875 50.5 -113.296875 C 60.71875 -113.296875 68.765625 -111.867188 74.640625 -109.015625 C 80.523438 -106.160156 85.113281 -102.175781 88.40625 -97.0625 L 79.125 -88 L 77.109375 -88 C 73.546875 -92.09375 69.664062 -95.046875 65.46875 -96.859375 C 61.269531 -98.679688 56.28125 -99.59375 50.5 -99.59375 C 43.175781 -99.59375 37.566406 -98.28125 33.671875 -95.65625 C 29.773438 -93.039062 27.828125 -89.242188 27.828125 -84.265625 C 27.828125 -79.765625 29.203125 -76.132812 31.953125 -73.375 C 34.710938 -70.625 39.519531 -68.410156 46.375 -66.734375 L 64.8125 -62.296875 C 74.488281 -60.003906 81.476562 -56.203125 85.78125 -50.890625 C 90.082031 -45.585938 92.234375 -38.941406 92.234375 -30.953125 C 92.234375 -24.429688 90.6875 -18.679688 87.59375 -13.703125 C 84.5 -8.734375 79.828125 -4.851562 73.578125 -2.0625 C 67.328125 0.71875 59.703125 2.109375 50.703125 2.109375 Z M 50.703125 2.109375 "/></g></g></g><g fill="#5c0601" fill-opacity="1"><g transform="translate(1214.483737, 2785.415183)"><g><path d="M 75.203125 -17.640625 L 80.4375 -5.84375 C 77.8125 -3.226562 74.363281 -1.25 70.09375 0.09375 C 65.832031 1.4375 61.21875 2.109375 56.25 2.109375 C 35.007812 2.109375 24.390625 -8.640625 24.390625 -30.140625 L 24.390625 -97.78125 L 5.046875 -97.78125 L 5.046875 -111.28125 L 24.390625 -111.28125 L 24.390625 -134.765625 L 40.828125 -137.484375 L 40.828125 -111.28125 L 76.609375 -111.28125 L 76.609375 -97.78125 L 40.828125 -97.78125 L 40.828125 -31.75 C 40.828125 -18.976562 46.367188 -12.59375 57.453125 -12.59375 C 63.503906 -12.59375 68.710938 -14.273438 73.078125 -17.640625 Z M 75.203125 -17.640625 "/></g></g></g><g fill="#5c0601" fill-opacity="1"><g transform="translate(1299.152932, 2785.415183)"><g><path d="M 19.359375 0 L 19.359375 -111.1875 L 34.984375 -111.1875 L 34.984375 -93.75 L 37.09375 -93.234375 C 42.269531 -105.867188 52.015625 -112.1875 66.328125 -112.1875 C 73.921875 -112.1875 79.597656 -110.8125 83.359375 -108.0625 L 79.125 -94.140625 L 77.109375 -93.75 C 72.941406 -95.832031 68.375 -96.875 63.40625 -96.875 C 54.53125 -96.875 47.707031 -93.546875 42.9375 -86.890625 C 38.164062 -80.234375 35.78125 -69.445312 35.78125 -54.53125 L 35.78125 0 Z M 19.359375 0 "/></g></g></g><g fill="#5c0601" fill-opacity="1"><g transform="translate(1385.031686, 2785.415183)"><g><path d="M 27.625 -132.65625 C 24.125 -132.65625 21.28125 -133.742188 19.09375 -135.921875 C 16.914062 -138.109375 15.828125 -140.882812 15.828125 -144.25 C 15.828125 -147.601562 16.914062 -150.375 19.09375 -152.5625 C 21.28125 -154.75 24.125 -155.84375 27.625 -155.84375 C 31.113281 -155.84375 33.945312 -154.75 36.125 -152.5625 C 38.3125 -150.375 39.40625 -147.601562 39.40625 -144.25 C 39.40625 -140.882812 38.3125 -138.109375 36.125 -135.921875 C 33.945312 -133.742188 31.113281 -132.65625 27.625 -132.65625 Z M 19.359375 0 L 19.359375 -111.1875 L 35.78125 -111.1875 L 35.78125 0 Z M 19.359375 0 "/></g></g></g><g fill="#5c0601" fill-opacity="1"><g transform="translate(1440.167447, 2785.415183)"><g><path d="M 73.890625 2.109375 C 65.617188 2.109375 58.441406 0.515625 52.359375 -2.671875 C 46.285156 -5.859375 41.46875 -10.078125 37.90625 -15.328125 L 35.78125 -14.921875 L 35.78125 0 L 19.359375 0 L 19.359375 -155.84375 L 35.78125 -155.84375 L 35.78125 -94.546875 L 37.90625 -94.140625 C 46.363281 -106.910156 58.660156 -113.296875 74.796875 -113.296875 C 83.929688 -113.296875 91.925781 -111.175781 98.78125 -106.9375 C 105.632812 -102.707031 110.957031 -96.273438 114.75 -87.640625 C 118.550781 -79.003906 120.453125 -68.304688 120.453125 -55.546875 C 120.453125 -42.910156 118.453125 -32.273438 114.453125 -23.640625 C 110.453125 -15.003906 104.957031 -8.550781 97.96875 -4.28125 C 90.988281 -0.0195312 82.960938 2.109375 73.890625 2.109375 Z M 69.953125 -12.59375 C 92.128906 -12.59375 103.21875 -26.910156 103.21875 -55.546875 C 103.21875 -70.390625 100.328125 -81.269531 94.546875 -88.1875 C 88.765625 -95.113281 80.566406 -98.578125 69.953125 -98.578125 C 59.535156 -98.578125 51.234375 -95.03125 45.046875 -87.9375 C 38.867188 -80.851562 35.78125 -70.054688 35.78125 -55.546875 C 35.78125 -41.097656 38.867188 -30.328125 45.046875 -23.234375 C 51.234375 -16.140625 59.535156 -12.59375 69.953125 -12.59375 Z M 69.953125 -12.59375 "/></g></g></g><g fill="#5c0601" fill-opacity="1"><g transform="translate(1572.815851, 2785.415183)"><g><path d="M 54.9375 2.109375 C 42.375 2.109375 33.015625 -1.210938 26.859375 -7.859375 C 20.710938 -14.515625 17.640625 -24.257812 17.640625 -37.09375 L 17.640625 -111.1875 L 34.0625 -111.1875 L 34.0625 -37.5 C 34.0625 -20.632812 41.992188 -12.203125 57.859375 -12.203125 C 67.941406 -12.203125 75.90625 -15.492188 81.75 -22.078125 C 87.59375 -28.660156 90.515625 -39.34375 90.515625 -54.125 L 90.515625 -111.1875 L 106.953125 -111.1875 L 106.953125 0 L 91.421875 0 L 91.421875 -17.4375 L 89.3125 -17.9375 C 85.476562 -11.15625 80.890625 -6.117188 75.546875 -2.828125 C 70.203125 0.460938 63.332031 2.109375 54.9375 2.109375 Z M 54.9375 2.109375 "/></g></g></g><g fill="#5c0601" fill-opacity="1"><g transform="translate(1699.114077, 2785.415183)"><g><path d="M 75.203125 -17.640625 L 80.4375 -5.84375 C 77.8125 -3.226562 74.363281 -1.25 70.09375 0.09375 C 65.832031 1.4375 61.21875 2.109375 56.25 2.109375 C 35.007812 2.109375 24.390625 -8.640625 24.390625 -30.140625 L 24.390625 -97.78125 L 5.046875 -97.78125 L 5.046875 -111.28125 L 24.390625 -111.28125 L 24.390625 -134.765625 L 40.828125 -137.484375 L 40.828125 -111.28125 L 76.609375 -111.28125 L 76.609375 -97.78125 L 40.828125 -97.78125 L 40.828125 -31.75 C 40.828125 -18.976562 46.367188 -12.59375 57.453125 -12.59375 C 63.503906 -12.59375 68.710938 -14.273438 73.078125 -17.640625 Z M 75.203125 -17.640625 "/></g></g></g><g fill="#5c0601" fill-opacity="1"><g transform="translate(1783.783271, 2785.415183)"><g><path d="M 63.8125 2.109375 C 53.320312 2.109375 44.195312 -0.101562 36.4375 -4.53125 C 28.675781 -8.96875 22.695312 -15.503906 18.5 -24.140625 C 14.300781 -32.773438 12.203125 -43.242188 12.203125 -55.546875 C 12.203125 -67.835938 14.300781 -78.316406 18.5 -86.984375 C 22.695312 -95.660156 28.675781 -102.210938 36.4375 -106.640625 C 44.195312 -111.078125 53.320312 -113.296875 63.8125 -113.296875 C 74.289062 -113.296875 83.410156 -111.078125 91.171875 -106.640625 C 98.929688 -102.210938 104.910156 -95.660156 109.109375 -86.984375 C 113.316406 -78.316406 115.421875 -67.835938 115.421875 -55.546875 C 115.421875 -43.242188 113.316406 -32.773438 109.109375 -24.140625 C 104.910156 -15.503906 98.929688 -8.96875 91.171875 -4.53125 C 83.410156 -0.101562 74.289062 2.109375 63.8125 2.109375 Z M 63.8125 -12.59375 C 74.894531 -12.59375 83.375 -16.085938 89.25 -23.078125 C 95.132812 -30.066406 98.078125 -40.890625 98.078125 -55.546875 C 98.078125 -70.253906 95.132812 -81.101562 89.25 -88.09375 C 83.375 -95.082031 74.894531 -98.578125 63.8125 -98.578125 C 52.71875 -98.578125 44.210938 -95.066406 38.296875 -88.046875 C 32.390625 -81.023438 29.4375 -70.191406 29.4375 -55.546875 C 29.4375 -40.890625 32.390625 -30.066406 38.296875 -23.078125 C 44.210938 -16.085938 52.71875 -12.59375 63.8125 -12.59375 Z M 63.8125 -12.59375 "/></g></g></g><g fill="#5c0601" fill-opacity="1"><g transform="translate(1911.391865, 2785.415183)"><g><path d="M 19.359375 0 L 19.359375 -111.1875 L 34.984375 -111.1875 L 34.984375 -93.75 L 37.09375 -93.234375 C 42.269531 -105.867188 52.015625 -112.1875 66.328125 -112.1875 C 73.921875 -112.1875 79.597656 -110.8125 83.359375 -108.0625 L 79.125 -94.140625 L 77.109375 -93.75 C 72.941406 -95.832031 68.375 -96.875 63.40625 -96.875 C 54.53125 -96.875 47.707031 -93.546875 42.9375 -86.890625 C 38.164062 -80.234375 35.78125 -69.445312 35.78125 -54.53125 L 35.78125 0 Z M 19.359375 0 "/></g></g></g><g fill="#5c0601" fill-opacity="1"><g transform="translate(1997.270664, 2785.415183)"><g><path d="M 50.703125 2.109375 C 43.710938 2.109375 37.242188 1.1875 31.296875 -0.65625 C 25.347656 -2.5 20.320312 -5.035156 16.21875 -8.265625 C 12.125 -11.492188 9.238281 -15.125 7.5625 -19.15625 L 17.234375 -29.234375 L 19.359375 -29.234375 C 22.984375 -23.722656 27.347656 -19.570312 32.453125 -16.78125 C 37.566406 -13.988281 43.648438 -12.59375 50.703125 -12.59375 C 58.898438 -12.59375 65.128906 -14.1875 69.390625 -17.375 C 73.660156 -20.570312 75.796875 -25.03125 75.796875 -30.75 C 75.796875 -35.113281 74.503906 -38.722656 71.921875 -41.578125 C 69.335938 -44.429688 65.15625 -46.566406 59.375 -47.984375 L 40.625 -52.625 C 30.613281 -55.039062 23.304688 -58.867188 18.703125 -64.109375 C 14.097656 -69.347656 11.796875 -75.832031 11.796875 -83.5625 C 11.796875 -89.613281 13.335938 -94.875 16.421875 -99.34375 C 19.515625 -103.8125 23.96875 -107.253906 29.78125 -109.671875 C 35.59375 -112.085938 42.5 -113.296875 50.5 -113.296875 C 60.71875 -113.296875 68.765625 -111.867188 74.640625 -109.015625 C 80.523438 -106.160156 85.113281 -102.175781 88.40625 -97.0625 L 79.125 -88 L 77.109375 -88 C 73.546875 -92.09375 69.664062 -95.046875 65.46875 -96.859375 C 61.269531 -98.679688 56.28125 -99.59375 50.5 -99.59375 C 43.175781 -99.59375 37.566406 -98.28125 33.671875 -95.65625 C 29.773438 -93.039062 27.828125 -89.242188 27.828125 -84.265625 C 27.828125 -79.765625 29.203125 -76.132812 31.953125 -73.375 C 34.710938 -70.625 39.519531 -68.410156 46.375 -66.734375 L 64.8125 -62.296875 C 74.488281 -60.003906 81.476562 -56.203125 85.78125 -50.890625 C 90.082031 -45.585938 92.234375 -38.941406 92.234375 -30.953125 C 92.234375 -24.429688 90.6875 -18.679688 87.59375 -13.703125 C 84.5 -8.734375 79.828125 -4.851562 73.578125 -2.0625 C 67.328125 0.71875 59.703125 2.109375 50.703125 2.109375 Z M 50.703125 2.109375 "/></g></g></g></svg>