<svg xmlns="http://www.w3.org/2000/svg" xmlns:xlink="http://www.w3.org/1999/xlink" width="4000" zoomAndPan="magnify" viewBox="0 0 3000 2999.999989" height="4000" preserveAspectRatio="xMidYMid meet" version="1.0"><defs><g/><clipPath id="45284d7253"><path d="M 877.5 532.5 L 2130 532.5 L 2130 1815 L 877.5 1815 Z M 877.5 532.5 " clip-rule="nonzero"/></clipPath><clipPath id="8044e5cafd"><path d="M 1193 871 L 1860 871 L 1860 1531 L 1193 1531 Z M 1193 871 " clip-rule="nonzero"/></clipPath><clipPath id="2671d4b6f2"><path d="M 1207.671875 857.960938 L 1873.015625 887.503906 L 1843.472656 1552.847656 L 1178.128906 1523.304688 Z M 1207.671875 857.960938 " clip-rule="nonzero"/></clipPath><clipPath id="a107b6e468"><path d="M 1207.671875 857.960938 L 1873.015625 887.503906 L 1843.472656 1552.847656 L 1178.128906 1523.304688 Z M 1207.671875 857.960938 " clip-rule="nonzero"/></clipPath><clipPath id="528d3ffbc5"><path d="M 1678.859375 1272.03125 L 1763.054688 1326.726562 C 1772.203125 1332.621094 1774.808594 1344.496094 1768.917969 1353.640625 C 1738.648438 1399.726562 1697.398438 1437.089844 1649.238281 1462.390625 C 1602.304688 1486.566406 1548.441406 1499.070312 1492.109375 1496.570312 C 1488.195312 1496.394531 1483.113281 1496.171875 1477.261719 1495.519531 L 1476.480469 1495.484375 C 1470.070312 1507.351562 1460.25 1516.714844 1448.609375 1522.859375 C 1433.359375 1530.804688 1415.246094 1532.746094 1397.847656 1527.269531 C 1380.0625 1521.777344 1366.5 1509.414062 1358.535156 1494.558594 C 1350.589844 1479.308594 1348.652344 1461.195312 1354.144531 1443.40625 C 1359.621094 1426.011719 1372 1412.058594 1386.839844 1404.484375 C 1402.085938 1396.539062 1420.609375 1394.226562 1438.007812 1399.703125 C 1455.386719 1405.570312 1469.355469 1417.558594 1477.300781 1432.804688 C 1480.902344 1440.019531 1483.273438 1448.355469 1484.476562 1456.640625 C 1487.214844 1456.761719 1490.324219 1457.292969 1493.847656 1457.449219 C 1543.136719 1459.636719 1590.28125 1448.40625 1631.191406 1427.488281 C 1667.710938 1408.332031 1699.867188 1381.539062 1724.847656 1348.546875 L 1657.789062 1305.195312 C 1651.554688 1313.152344 1644.574219 1320.289062 1637.203125 1327.410156 C 1600.449219 1360.664062 1550.96875 1380.414062 1497.371094 1378.035156 C 1444.167969 1375.671875 1396.632812 1351.613281 1362.972656 1315.230469 C 1355.886719 1307.078125 1348.835938 1298.140625 1342.976562 1288.867188 L 1253.566406 1333.890625 C 1243.933594 1338.953125 1231.964844 1334.894531 1227.296875 1325.277344 L 1226.902344 1325.261719 C 1215.054688 1300.824219 1205.996094 1275.335938 1200.492188 1249.222656 C 1194.96875 1223.5 1192.613281 1197.132812 1193.8125 1170.140625 C 1195.269531 1137.277344 1201.761719 1105.816406 1212.472656 1076.503906 C 1222.277344 1049.890625 1235.515625 1025.394531 1251.40625 1002.972656 C 1244.085938 991.28125 1241.136719 978.214844 1241.730469 964.914062 C 1242.476562 948.09375 1249.5 931.15625 1263.375 918.839844 C 1276.875 906.109375 1294.363281 900.617188 1311.1875 901.363281 C 1328.398438 902.128906 1345.332031 909.152344 1357.652344 923.023438 C 1369.988281 936.507812 1375.875 954.015625 1375.128906 970.835938 C 1374.363281 988.050781 1366.949219 1004.96875 1353.464844 1017.304688 C 1339.984375 1029.640625 1322.476562 1035.527344 1305.261719 1034.761719 C 1297.046875 1034.398438 1288.902344 1032.46875 1281.214844 1028.992188 C 1268.238281 1047.621094 1257.519531 1068.3125 1249.507812 1089.90625 C 1240.125 1115.75 1234.199219 1143.316406 1232.929688 1171.875 C 1231.871094 1195.738281 1233.976562 1218.957031 1238.871094 1241.125 C 1242.445312 1257.75 1247.601562 1274.046875 1253.964844 1289.617188 L 1325.316406 1253.980469 C 1315.816406 1229.648438 1311.109375 1203.175781 1312.34375 1175.402344 C 1314.707031 1122.199219 1338.769531 1074.664062 1375.148438 1041 C 1407.40625 1011.859375 1449.386719 993.339844 1494.976562 990.660156 L 1499.421875 890.515625 C 1499.910156 879.5625 1509.289062 871.355469 1519.851562 871.824219 C 1581.660156 874.566406 1638.757812 895.132812 1685.878906 928.582031 C 1731.109375 960.382812 1767.605469 1003.550781 1790.4375 1054.347656 C 1804.179688 1053.78125 1817.34375 1057.5 1828 1064.636719 L 1828.394531 1064.65625 C 1842.484375 1073.902344 1853.597656 1088.507812 1857.492188 1106.710938 C 1861.402344 1124.523438 1857.867188 1142.398438 1848.601562 1156.882812 C 1839.332031 1171.363281 1824.730469 1182.476562 1806.523438 1186.371094 C 1788.714844 1190.285156 1770.855469 1186.355469 1756.355469 1177.480469 L 1756.375 1177.089844 L 1756.355469 1177.480469 C 1741.871094 1168.214844 1731.171875 1153.234375 1726.867188 1135.40625 C 1722.953125 1117.59375 1726.882812 1099.734375 1736.148438 1085.253906 L 1736.167969 1084.863281 C 1740.390625 1077.992188 1746.164062 1071.585938 1753.039062 1066.796875 C 1732.972656 1024.355469 1701.675781 987.6875 1663.292969 960.507812 C 1627.191406 934.992188 1584.425781 918.199219 1538.03125 912.613281 L 1534.484375 992.417969 C 1579.65625 999.125 1619.828125 1021.292969 1649.378906 1053.179688 C 1682.632812 1089.933594 1702.386719 1139.414062 1700.023438 1192.617188 C 1698.738281 1221.566406 1691.28125 1248.28125 1678.859375 1272.03125 Z M 1620.371094 1079.71875 C 1593.4375 1050.695312 1555.472656 1031.761719 1512.832031 1029.867188 C 1470.582031 1027.992188 1431.089844 1043.484375 1401.691406 1070.007812 C 1372.664062 1096.941406 1353.730469 1134.90625 1351.855469 1177.15625 C 1349.960938 1219.796875 1365.457031 1259.289062 1391.980469 1288.691406 C 1418.914062 1317.714844 1456.878906 1336.648438 1499.128906 1338.523438 C 1541.769531 1340.417969 1581.261719 1324.925781 1610.660156 1298.402344 C 1639.6875 1271.46875 1658.617188 1233.503906 1660.511719 1190.863281 C 1662.386719 1148.613281 1646.894531 1109.121094 1620.371094 1079.71875 Z M 1509.496094 1104.976562 C 1531.40625 1105.949219 1550.957031 1115.835938 1564.398438 1130.933594 C 1578.246094 1145.660156 1586.359375 1166.011719 1585.402344 1187.527344 C 1584.429688 1209.433594 1574.546875 1228.984375 1559.445312 1242.425781 C 1544.71875 1256.273438 1524.371094 1264.386719 1502.460938 1263.414062 C 1480.945312 1262.457031 1461.394531 1252.574219 1447.953125 1237.476562 C 1434.105469 1222.75 1425.992188 1202.398438 1426.964844 1180.492188 C 1427.921875 1158.976562 1437.804688 1139.425781 1452.90625 1125.984375 C 1467.628906 1112.132812 1487.980469 1104.023438 1509.496094 1104.976562 Z M 1535.386719 1157.476562 C 1528.675781 1149.730469 1519.085938 1144.992188 1507.742188 1144.488281 C 1496.789062 1144.003906 1486.820312 1147.871094 1479.445312 1154.992188 C 1471.703125 1161.703125 1466.964844 1171.292969 1466.476562 1182.246094 C 1465.972656 1193.589844 1469.84375 1203.5625 1476.960938 1210.933594 C 1483.675781 1218.679688 1493.261719 1223.417969 1504.214844 1223.902344 C 1515.5625 1224.40625 1525.53125 1220.539062 1532.902344 1213.417969 C 1540.648438 1206.707031 1545.386719 1197.117188 1545.890625 1185.773438 C 1546.378906 1174.820312 1542.507812 1164.847656 1535.386719 1157.476562 Z M 1309.449219 940.484375 C 1302.40625 940.171875 1295.246094 942.597656 1289.914062 947.847656 C 1284.210938 952.6875 1281.160156 959.609375 1280.847656 966.652344 C 1280.535156 973.691406 1282.960938 980.855469 1288.195312 986.574219 C 1293.039062 992.277344 1299.957031 995.328125 1307 995.640625 C 1314.042969 995.953125 1321.203125 993.527344 1326.925781 988.296875 C 1332.644531 983.0625 1335.695312 976.140625 1336.007812 969.101562 C 1336.320312 962.058594 1333.894531 954.894531 1328.644531 949.566406 C 1323.410156 943.847656 1316.492188 940.796875 1309.449219 940.484375 Z M 1393.457031 1476.117188 C 1396.699219 1482.535156 1402.359375 1487.488281 1409.703125 1489.773438 C 1416.660156 1492.042969 1424.144531 1491.199219 1430.558594 1487.957031 C 1436.976562 1484.714844 1441.929688 1479.054688 1444.199219 1472.101562 C 1446.484375 1464.753906 1445.640625 1457.269531 1442.398438 1450.851562 C 1439.140625 1444.828125 1433.496094 1439.484375 1426.152344 1437.195312 C 1418.804688 1434.910156 1411.320312 1435.753906 1405.296875 1439.015625 C 1398.878906 1442.257812 1393.925781 1447.917969 1391.640625 1455.261719 C 1389.351562 1462.609375 1390.195312 1470.09375 1393.457031 1476.117188 Z M 1815.433594 1135.808594 C 1819.234375 1129.707031 1820.734375 1122.328125 1819.09375 1115.199219 C 1817.46875 1107.679688 1813.03125 1101.601562 1806.929688 1097.804688 C 1801.21875 1094.023438 1793.839844 1092.519531 1786.316406 1094.144531 C 1778.796875 1095.769531 1772.722656 1100.203125 1768.921875 1106.308594 C 1765.140625 1112.019531 1763.636719 1119.398438 1765.265625 1126.917969 C 1766.890625 1134.4375 1771.714844 1140.53125 1777.425781 1144.3125 C 1783.53125 1148.113281 1790.910156 1149.617188 1798.429688 1147.988281 C 1805.558594 1146.347656 1811.636719 1141.914062 1815.433594 1135.808594 Z M 1815.433594 1135.808594 " clip-rule="nonzero"/></clipPath><linearGradient x1="5.38343" gradientTransform="matrix(39.119995, 1.737094, -1.737094, 39.119995, 1207.673101, 857.960997)" y1="18.718973" x2="10.770241" gradientUnits="userSpaceOnUse" y2="-2.123354" id="c5f974c98e"><stop stop-opacity="1" stop-color="rgb(78.82843%, 50.190735%, 19.836426%)" offset="0"/><stop stop-opacity="1" stop-color="rgb(78.164673%, 50.140381%, 20.289612%)" offset="0.00390625"/><stop stop-opacity="1" stop-color="rgb(77.500916%, 50.091553%, 20.744324%)" offset="0.0078125"/><stop stop-opacity="1" stop-color="rgb(76.837158%, 50.041199%, 21.19751%)" offset="0.0117187"/><stop stop-opacity="1" stop-color="rgb(76.173401%, 49.992371%, 21.650696%)" offset="0.015625"/><stop stop-opacity="1" stop-color="rgb(75.509644%, 49.942017%, 22.103882%)" offset="0.0195312"/><stop stop-opacity="1" stop-color="rgb(74.847412%, 49.893188%, 22.558594%)" offset="0.0234375"/><stop stop-opacity="1" stop-color="rgb(74.183655%, 49.842834%, 23.01178%)" offset="0.0273437"/><stop stop-opacity="1" stop-color="rgb(73.519897%, 49.794006%, 23.464966%)" offset="0.03125"/><stop stop-opacity="1" stop-color="rgb(72.85614%, 49.743652%, 23.918152%)" offset="0.0351562"/><stop stop-opacity="1" stop-color="rgb(72.192383%, 49.694824%, 24.371338%)" offset="0.0390625"/><stop stop-opacity="1" stop-color="rgb(71.528625%, 49.64447%, 24.824524%)" offset="0.0429687"/><stop stop-opacity="1" stop-color="rgb(70.864868%, 49.595642%, 25.279236%)" offset="0.046875"/><stop stop-opacity="1" stop-color="rgb(70.201111%, 49.545288%, 25.732422%)" offset="0.0507812"/><stop stop-opacity="1" stop-color="rgb(69.537354%, 49.49646%, 26.185608%)" offset="0.0546875"/><stop stop-opacity="1" stop-color="rgb(68.873596%, 49.446106%, 26.638794%)" offset="0.0585937"/><stop stop-opacity="1" stop-color="rgb(68.209839%, 49.397278%, 27.093506%)" offset="0.0625"/><stop stop-opacity="1" stop-color="rgb(67.546082%, 49.346924%, 27.546692%)" offset="0.0664062"/><stop stop-opacity="1" stop-color="rgb(66.882324%, 49.298096%, 27.999878%)" offset="0.0703125"/><stop stop-opacity="1" stop-color="rgb(66.218567%, 49.247742%, 28.453064%)" offset="0.0742187"/><stop stop-opacity="1" stop-color="rgb(65.55481%, 49.198914%, 28.90625%)" offset="0.078125"/><stop stop-opacity="1" stop-color="rgb(64.891052%, 49.14856%, 29.359436%)" offset="0.0820312"/><stop stop-opacity="1" stop-color="rgb(64.227295%, 49.099731%, 29.814148%)" offset="0.0859375"/><stop stop-opacity="1" stop-color="rgb(63.563538%, 49.049377%, 30.267334%)" offset="0.0898437"/><stop stop-opacity="1" stop-color="rgb(62.89978%, 49.000549%, 30.72052%)" offset="0.09375"/><stop stop-opacity="1" stop-color="rgb(62.236023%, 48.950195%, 31.173706%)" offset="0.0976562"/><stop stop-opacity="1" stop-color="rgb(61.572266%, 48.901367%, 31.628418%)" offset="0.101562"/><stop stop-opacity="1" stop-color="rgb(60.908508%, 48.851013%, 32.081604%)" offset="0.105469"/><stop stop-opacity="1" stop-color="rgb(60.244751%, 48.802185%, 32.53479%)" offset="0.109375"/><stop stop-opacity="1" stop-color="rgb(59.580994%, 48.751831%, 32.987976%)" offset="0.113281"/><stop stop-opacity="1" stop-color="rgb(58.917236%, 48.703003%, 33.441162%)" offset="0.117188"/><stop stop-opacity="1" stop-color="rgb(58.253479%, 48.652649%, 33.894348%)" offset="0.121094"/><stop stop-opacity="1" stop-color="rgb(57.589722%, 48.603821%, 34.34906%)" offset="0.125"/><stop stop-opacity="1" stop-color="rgb(56.925964%, 48.553467%, 34.802246%)" offset="0.128906"/><stop stop-opacity="1" stop-color="rgb(56.262207%, 48.504639%, 35.255432%)" offset="0.132812"/><stop stop-opacity="1" stop-color="rgb(55.59845%, 48.454285%, 35.708618%)" offset="0.136719"/><stop stop-opacity="1" stop-color="rgb(54.934692%, 48.405457%, 36.16333%)" offset="0.140625"/><stop stop-opacity="1" stop-color="rgb(54.270935%, 48.355103%, 36.616516%)" offset="0.144531"/><stop stop-opacity="1" stop-color="rgb(53.607178%, 48.306274%, 37.069702%)" offset="0.148437"/><stop stop-opacity="1" stop-color="rgb(52.94342%, 48.25592%, 37.522888%)" offset="0.152344"/><stop stop-opacity="1" stop-color="rgb(52.281189%, 48.207092%, 37.976074%)" offset="0.15625"/><stop stop-opacity="1" stop-color="rgb(51.617432%, 48.156738%, 38.42926%)" offset="0.160156"/><stop stop-opacity="1" stop-color="rgb(50.953674%, 48.10791%, 38.883972%)" offset="0.164063"/><stop stop-opacity="1" stop-color="rgb(50.289917%, 48.057556%, 39.337158%)" offset="0.167969"/><stop stop-opacity="1" stop-color="rgb(49.62616%, 48.008728%, 39.790344%)" offset="0.171875"/><stop stop-opacity="1" stop-color="rgb(48.962402%, 47.958374%, 40.24353%)" offset="0.175781"/><stop stop-opacity="1" stop-color="rgb(48.298645%, 47.90802%, 40.698242%)" offset="0.179688"/><stop stop-opacity="1" stop-color="rgb(47.634888%, 47.857666%, 41.151428%)" offset="0.183594"/><stop stop-opacity="1" stop-color="rgb(46.97113%, 47.808838%, 41.604614%)" offset="0.1875"/><stop stop-opacity="1" stop-color="rgb(46.307373%, 47.758484%, 42.0578%)" offset="0.191406"/><stop stop-opacity="1" stop-color="rgb(45.643616%, 47.709656%, 42.512512%)" offset="0.195312"/><stop stop-opacity="1" stop-color="rgb(44.979858%, 47.659302%, 42.965698%)" offset="0.199219"/><stop stop-opacity="1" stop-color="rgb(44.316101%, 47.610474%, 43.418884%)" offset="0.203125"/><stop stop-opacity="1" stop-color="rgb(43.652344%, 47.56012%, 43.87207%)" offset="0.207031"/><stop stop-opacity="1" stop-color="rgb(42.988586%, 47.511292%, 44.325256%)" offset="0.210937"/><stop stop-opacity="1" stop-color="rgb(42.324829%, 47.460938%, 44.778442%)" offset="0.214844"/><stop stop-opacity="1" stop-color="rgb(41.661072%, 47.412109%, 45.233154%)" offset="0.21875"/><stop stop-opacity="1" stop-color="rgb(40.997314%, 47.361755%, 45.68634%)" offset="0.222656"/><stop stop-opacity="1" stop-color="rgb(40.333557%, 47.312927%, 46.139526%)" offset="0.226562"/><stop stop-opacity="1" stop-color="rgb(39.6698%, 47.262573%, 46.592712%)" offset="0.230469"/><stop stop-opacity="1" stop-color="rgb(39.006042%, 47.213745%, 47.047424%)" offset="0.234375"/><stop stop-opacity="1" stop-color="rgb(38.342285%, 47.163391%, 47.50061%)" offset="0.238281"/><stop stop-opacity="1" stop-color="rgb(37.678528%, 47.114563%, 47.953796%)" offset="0.242188"/><stop stop-opacity="1" stop-color="rgb(37.014771%, 47.064209%, 48.406982%)" offset="0.246094"/><stop stop-opacity="1" stop-color="rgb(36.351013%, 47.015381%, 48.860168%)" offset="0.25"/><stop stop-opacity="1" stop-color="rgb(35.687256%, 46.965027%, 49.313354%)" offset="0.253906"/><stop stop-opacity="1" stop-color="rgb(35.023499%, 46.916199%, 49.768066%)" offset="0.257812"/><stop stop-opacity="1" stop-color="rgb(34.359741%, 46.865845%, 50.221252%)" offset="0.261719"/><stop stop-opacity="1" stop-color="rgb(33.695984%, 46.817017%, 50.674438%)" offset="0.265625"/><stop stop-opacity="1" stop-color="rgb(33.032227%, 46.766663%, 51.127625%)" offset="0.269531"/><stop stop-opacity="1" stop-color="rgb(32.368469%, 46.717834%, 51.582336%)" offset="0.273438"/><stop stop-opacity="1" stop-color="rgb(31.704712%, 46.66748%, 52.035522%)" offset="0.277344"/><stop stop-opacity="1" stop-color="rgb(31.04248%, 46.618652%, 52.488708%)" offset="0.28125"/><stop stop-opacity="1" stop-color="rgb(30.378723%, 46.568298%, 52.941895%)" offset="0.285156"/><stop stop-opacity="1" stop-color="rgb(29.714966%, 46.51947%, 53.395081%)" offset="0.289062"/><stop stop-opacity="1" stop-color="rgb(29.051208%, 46.469116%, 53.848267%)" offset="0.292969"/><stop stop-opacity="1" stop-color="rgb(28.387451%, 46.420288%, 54.302979%)" offset="0.296875"/><stop stop-opacity="1" stop-color="rgb(27.723694%, 46.369934%, 54.756165%)" offset="0.300781"/><stop stop-opacity="1" stop-color="rgb(27.059937%, 46.321106%, 55.209351%)" offset="0.304688"/><stop stop-opacity="1" stop-color="rgb(26.396179%, 46.270752%, 55.662537%)" offset="0.308594"/><stop stop-opacity="1" stop-color="rgb(25.732422%, 46.221924%, 56.117249%)" offset="0.3125"/><stop stop-opacity="1" stop-color="rgb(25.068665%, 46.17157%, 56.570435%)" offset="0.316406"/><stop stop-opacity="1" stop-color="rgb(24.404907%, 46.122742%, 57.023621%)" offset="0.320312"/><stop stop-opacity="1" stop-color="rgb(23.74115%, 46.072388%, 57.476807%)" offset="0.324219"/><stop stop-opacity="1" stop-color="rgb(23.077393%, 46.02356%, 57.929993%)" offset="0.328125"/><stop stop-opacity="1" stop-color="rgb(22.413635%, 45.973206%, 58.383179%)" offset="0.332031"/><stop stop-opacity="1" stop-color="rgb(21.749878%, 45.924377%, 58.837891%)" offset="0.335938"/><stop stop-opacity="1" stop-color="rgb(21.086121%, 45.874023%, 59.291077%)" offset="0.339844"/><stop stop-opacity="1" stop-color="rgb(20.422363%, 45.825195%, 59.744263%)" offset="0.34375"/><stop stop-opacity="1" stop-color="rgb(19.758606%, 45.774841%, 60.197449%)" offset="0.347656"/><stop stop-opacity="1" stop-color="rgb(19.094849%, 45.726013%, 60.652161%)" offset="0.351562"/><stop stop-opacity="1" stop-color="rgb(18.431091%, 45.675659%, 61.105347%)" offset="0.355469"/><stop stop-opacity="1" stop-color="rgb(17.767334%, 45.626831%, 61.558533%)" offset="0.359375"/><stop stop-opacity="1" stop-color="rgb(17.103577%, 45.576477%, 62.011719%)" offset="0.363281"/><stop stop-opacity="1" stop-color="rgb(16.439819%, 45.527649%, 62.464905%)" offset="0.367187"/><stop stop-opacity="1" stop-color="rgb(15.776062%, 45.477295%, 62.918091%)" offset="0.371094"/><stop stop-opacity="1" stop-color="rgb(15.112305%, 45.428467%, 63.372803%)" offset="0.375"/><stop stop-opacity="1" stop-color="rgb(14.448547%, 45.378113%, 63.825989%)" offset="0.378906"/><stop stop-opacity="1" stop-color="rgb(13.78479%, 45.329285%, 64.279175%)" offset="0.382812"/><stop stop-opacity="1" stop-color="rgb(13.121033%, 45.278931%, 64.732361%)" offset="0.386719"/><stop stop-opacity="1" stop-color="rgb(12.457275%, 45.230103%, 65.187073%)" offset="0.390625"/><stop stop-opacity="1" stop-color="rgb(11.793518%, 45.179749%, 65.640259%)" offset="0.394531"/><stop stop-opacity="1" stop-color="rgb(11.129761%, 45.13092%, 66.093445%)" offset="0.398437"/><stop stop-opacity="1" stop-color="rgb(10.466003%, 45.080566%, 66.546631%)" offset="0.402344"/><stop stop-opacity="1" stop-color="rgb(9.802246%, 45.031738%, 66.999817%)" offset="0.40625"/><stop stop-opacity="1" stop-color="rgb(9.138489%, 44.981384%, 67.453003%)" offset="0.410156"/><stop stop-opacity="1" stop-color="rgb(8.476257%, 44.932556%, 67.907715%)" offset="0.414062"/><stop stop-opacity="1" stop-color="rgb(7.8125%, 44.882202%, 68.360901%)" offset="0.417969"/><stop stop-opacity="1" stop-color="rgb(7.148743%, 44.833374%, 68.814087%)" offset="0.421875"/><stop stop-opacity="1" stop-color="rgb(6.484985%, 44.78302%, 69.267273%)" offset="0.425781"/><stop stop-opacity="1" stop-color="rgb(5.821228%, 44.734192%, 69.721985%)" offset="0.429687"/><stop stop-opacity="1" stop-color="rgb(5.157471%, 44.683838%, 70.175171%)" offset="0.433594"/><stop stop-opacity="1" stop-color="rgb(4.493713%, 44.63501%, 70.628357%)" offset="0.4375"/><stop stop-opacity="1" stop-color="rgb(3.829956%, 44.584656%, 71.081543%)" offset="0.441406"/><stop stop-opacity="1" stop-color="rgb(3.166199%, 44.535828%, 71.536255%)" offset="0.445312"/><stop stop-opacity="1" stop-color="rgb(2.502441%, 44.485474%, 71.989441%)" offset="0.449219"/><stop stop-opacity="1" stop-color="rgb(1.838684%, 44.436646%, 72.442627%)" offset="0.453125"/><stop stop-opacity="1" stop-color="rgb(1.174927%, 44.386292%, 72.895813%)" offset="0.457031"/><stop stop-opacity="1" stop-color="rgb(0.511169%, 44.337463%, 73.348999%)" offset="0.460938"/><stop stop-opacity="1" stop-color="rgb(0.700378%, 44.351196%, 73.219299%)" offset="0.46875"/><stop stop-opacity="1" stop-color="rgb(1.61438%, 44.419861%, 72.595215%)" offset="0.472656"/><stop stop-opacity="1" stop-color="rgb(2.339172%, 44.474792%, 72.10083%)" offset="0.476562"/><stop stop-opacity="1" stop-color="rgb(3.063965%, 44.528198%, 71.604919%)" offset="0.480469"/><stop stop-opacity="1" stop-color="rgb(3.788757%, 44.58313%, 71.109009%)" offset="0.484375"/><stop stop-opacity="1" stop-color="rgb(4.51355%, 44.636536%, 70.613098%)" offset="0.488281"/><stop stop-opacity="1" stop-color="rgb(5.238342%, 44.691467%, 70.118713%)" offset="0.492187"/><stop stop-opacity="1" stop-color="rgb(5.963135%, 44.744873%, 69.622803%)" offset="0.496094"/><stop stop-opacity="1" stop-color="rgb(6.687927%, 44.799805%, 69.128418%)" offset="0.5"/><stop stop-opacity="1" stop-color="rgb(7.41272%, 44.85321%, 68.632507%)" offset="0.503906"/><stop stop-opacity="1" stop-color="rgb(8.137512%, 44.908142%, 68.138123%)" offset="0.507812"/><stop stop-opacity="1" stop-color="rgb(8.862305%, 44.961548%, 67.642212%)" offset="0.511719"/><stop stop-opacity="1" stop-color="rgb(9.587097%, 45.016479%, 67.147827%)" offset="0.515625"/><stop stop-opacity="1" stop-color="rgb(10.31189%, 45.069885%, 66.651917%)" offset="0.519531"/><stop stop-opacity="1" stop-color="rgb(11.036682%, 45.124817%, 66.157532%)" offset="0.523437"/><stop stop-opacity="1" stop-color="rgb(11.761475%, 45.178223%, 65.661621%)" offset="0.527344"/><stop stop-opacity="1" stop-color="rgb(12.486267%, 45.233154%, 65.167236%)" offset="0.53125"/><stop stop-opacity="1" stop-color="rgb(13.21106%, 45.28656%, 64.671326%)" offset="0.535156"/><stop stop-opacity="1" stop-color="rgb(13.935852%, 45.341492%, 64.176941%)" offset="0.539062"/><stop stop-opacity="1" stop-color="rgb(14.660645%, 45.394897%, 63.68103%)" offset="0.542969"/><stop stop-opacity="1" stop-color="rgb(15.385437%, 45.449829%, 63.18512%)" offset="0.546875"/><stop stop-opacity="1" stop-color="rgb(16.110229%, 45.503235%, 62.689209%)" offset="0.550781"/><stop stop-opacity="1" stop-color="rgb(16.835022%, 45.558167%, 62.194824%)" offset="0.554687"/><stop stop-opacity="1" stop-color="rgb(17.559814%, 45.611572%, 61.698914%)" offset="0.558594"/><stop stop-opacity="1" stop-color="rgb(18.284607%, 45.666504%, 61.204529%)" offset="0.5625"/><stop stop-opacity="1" stop-color="rgb(19.009399%, 45.71991%, 60.708618%)" offset="0.566406"/><stop stop-opacity="1" stop-color="rgb(19.734192%, 45.774841%, 60.214233%)" offset="0.570312"/><stop stop-opacity="1" stop-color="rgb(20.458984%, 45.828247%, 59.718323%)" offset="0.574219"/><stop stop-opacity="1" stop-color="rgb(21.183777%, 45.883179%, 59.223938%)" offset="0.578125"/><stop stop-opacity="1" stop-color="rgb(21.908569%, 45.936584%, 58.728027%)" offset="0.582031"/><stop stop-opacity="1" stop-color="rgb(22.633362%, 45.991516%, 58.233643%)" offset="0.585937"/><stop stop-opacity="1" stop-color="rgb(23.358154%, 46.044922%, 57.737732%)" offset="0.589844"/><stop stop-opacity="1" stop-color="rgb(24.082947%, 46.099854%, 57.243347%)" offset="0.59375"/><stop stop-opacity="1" stop-color="rgb(24.807739%, 46.153259%, 56.747437%)" offset="0.597656"/><stop stop-opacity="1" stop-color="rgb(25.534058%, 46.208191%, 56.253052%)" offset="0.601562"/><stop stop-opacity="1" stop-color="rgb(26.25885%, 46.261597%, 55.757141%)" offset="0.605469"/><stop stop-opacity="1" stop-color="rgb(26.983643%, 46.316528%, 55.26123%)" offset="0.609375"/><stop stop-opacity="1" stop-color="rgb(27.708435%, 46.369934%, 54.76532%)" offset="0.613281"/><stop stop-opacity="1" stop-color="rgb(28.433228%, 46.424866%, 54.270935%)" offset="0.617187"/><stop stop-opacity="1" stop-color="rgb(29.15802%, 46.478271%, 53.775024%)" offset="0.621094"/><stop stop-opacity="1" stop-color="rgb(29.882812%, 46.533203%, 53.28064%)" offset="0.625"/><stop stop-opacity="1" stop-color="rgb(30.607605%, 46.586609%, 52.784729%)" offset="0.628906"/><stop stop-opacity="1" stop-color="rgb(31.332397%, 46.641541%, 52.290344%)" offset="0.632812"/><stop stop-opacity="1" stop-color="rgb(32.05719%, 46.694946%, 51.794434%)" offset="0.636719"/><stop stop-opacity="1" stop-color="rgb(32.781982%, 46.749878%, 51.300049%)" offset="0.640625"/><stop stop-opacity="1" stop-color="rgb(33.506775%, 46.803284%, 50.804138%)" offset="0.644531"/><stop stop-opacity="1" stop-color="rgb(34.231567%, 46.858215%, 50.309753%)" offset="0.648437"/><stop stop-opacity="1" stop-color="rgb(34.95636%, 46.911621%, 49.813843%)" offset="0.652344"/><stop stop-opacity="1" stop-color="rgb(35.681152%, 46.966553%, 49.319458%)" offset="0.65625"/><stop stop-opacity="1" stop-color="rgb(36.405945%, 47.019958%, 48.823547%)" offset="0.660156"/><stop stop-opacity="1" stop-color="rgb(37.130737%, 47.07489%, 48.329163%)" offset="0.664062"/><stop stop-opacity="1" stop-color="rgb(37.85553%, 47.128296%, 47.833252%)" offset="0.667969"/><stop stop-opacity="1" stop-color="rgb(38.580322%, 47.183228%, 47.338867%)" offset="0.671875"/><stop stop-opacity="1" stop-color="rgb(39.305115%, 47.236633%, 46.842957%)" offset="0.675781"/><stop stop-opacity="1" stop-color="rgb(40.029907%, 47.291565%, 46.347046%)" offset="0.679688"/><stop stop-opacity="1" stop-color="rgb(40.7547%, 47.344971%, 45.851135%)" offset="0.683594"/><stop stop-opacity="1" stop-color="rgb(41.479492%, 47.399902%, 45.35675%)" offset="0.6875"/><stop stop-opacity="1" stop-color="rgb(42.204285%, 47.453308%, 44.86084%)" offset="0.691406"/><stop stop-opacity="1" stop-color="rgb(42.929077%, 47.50824%, 44.366455%)" offset="0.695312"/><stop stop-opacity="1" stop-color="rgb(43.65387%, 47.561646%, 43.870544%)" offset="0.699219"/><stop stop-opacity="1" stop-color="rgb(44.378662%, 47.616577%, 43.37616%)" offset="0.703125"/><stop stop-opacity="1" stop-color="rgb(45.103455%, 47.669983%, 42.880249%)" offset="0.707031"/><stop stop-opacity="1" stop-color="rgb(45.828247%, 47.723389%, 42.385864%)" offset="0.710938"/><stop stop-opacity="1" stop-color="rgb(46.55304%, 47.776794%, 41.889954%)" offset="0.714844"/><stop stop-opacity="1" stop-color="rgb(47.277832%, 47.831726%, 41.395569%)" offset="0.71875"/><stop stop-opacity="1" stop-color="rgb(48.002625%, 47.885132%, 40.899658%)" offset="0.722656"/><stop stop-opacity="1" stop-color="rgb(48.727417%, 47.940063%, 40.405273%)" offset="0.726562"/><stop stop-opacity="1" stop-color="rgb(49.452209%, 47.993469%, 39.909363%)" offset="0.730469"/><stop stop-opacity="1" stop-color="rgb(50.177002%, 48.048401%, 39.414978%)" offset="0.734375"/><stop stop-opacity="1" stop-color="rgb(50.901794%, 48.101807%, 38.919067%)" offset="0.738281"/><stop stop-opacity="1" stop-color="rgb(51.626587%, 48.156738%, 38.423157%)" offset="0.742188"/><stop stop-opacity="1" stop-color="rgb(52.351379%, 48.210144%, 37.927246%)" offset="0.746094"/><stop stop-opacity="1" stop-color="rgb(53.076172%, 48.265076%, 37.432861%)" offset="0.75"/><stop stop-opacity="1" stop-color="rgb(53.800964%, 48.318481%, 36.936951%)" offset="0.753906"/><stop stop-opacity="1" stop-color="rgb(54.525757%, 48.373413%, 36.442566%)" offset="0.757812"/><stop stop-opacity="1" stop-color="rgb(55.250549%, 48.426819%, 35.946655%)" offset="0.761719"/><stop stop-opacity="1" stop-color="rgb(55.975342%, 48.48175%, 35.452271%)" offset="0.765625"/><stop stop-opacity="1" stop-color="rgb(56.700134%, 48.535156%, 34.95636%)" offset="0.769531"/><stop stop-opacity="1" stop-color="rgb(57.424927%, 48.590088%, 34.461975%)" offset="0.773437"/><stop stop-opacity="1" stop-color="rgb(58.149719%, 48.643494%, 33.966064%)" offset="0.777344"/><stop stop-opacity="1" stop-color="rgb(58.874512%, 48.698425%, 33.47168%)" offset="0.78125"/><stop stop-opacity="1" stop-color="rgb(59.599304%, 48.751831%, 32.975769%)" offset="0.785156"/><stop stop-opacity="1" stop-color="rgb(60.324097%, 48.806763%, 32.481384%)" offset="0.789062"/><stop stop-opacity="1" stop-color="rgb(61.048889%, 48.860168%, 31.985474%)" offset="0.792969"/><stop stop-opacity="1" stop-color="rgb(61.773682%, 48.9151%, 31.491089%)" offset="0.796875"/><stop stop-opacity="1" stop-color="rgb(62.498474%, 48.968506%, 30.995178%)" offset="0.800781"/><stop stop-opacity="1" stop-color="rgb(63.223267%, 49.023438%, 30.499268%)" offset="0.804687"/><stop stop-opacity="1" stop-color="rgb(63.948059%, 49.076843%, 30.003357%)" offset="0.808594"/><stop stop-opacity="1" stop-color="rgb(64.672852%, 49.131775%, 29.508972%)" offset="0.8125"/><stop stop-opacity="1" stop-color="rgb(65.397644%, 49.185181%, 29.013062%)" offset="0.816406"/><stop stop-opacity="1" stop-color="rgb(66.122437%, 49.240112%, 28.518677%)" offset="0.820312"/><stop stop-opacity="1" stop-color="rgb(66.847229%, 49.293518%, 28.022766%)" offset="0.824219"/><stop stop-opacity="1" stop-color="rgb(67.572021%, 49.34845%, 27.528381%)" offset="0.828125"/><stop stop-opacity="1" stop-color="rgb(68.296814%, 49.401855%, 27.032471%)" offset="0.832031"/><stop stop-opacity="1" stop-color="rgb(69.021606%, 49.456787%, 26.538086%)" offset="0.835937"/><stop stop-opacity="1" stop-color="rgb(69.746399%, 49.510193%, 26.042175%)" offset="0.839844"/><stop stop-opacity="1" stop-color="rgb(70.471191%, 49.565125%, 25.547791%)" offset="0.84375"/><stop stop-opacity="1" stop-color="rgb(71.195984%, 49.61853%, 25.05188%)" offset="0.847656"/><stop stop-opacity="1" stop-color="rgb(71.920776%, 49.673462%, 24.557495%)" offset="0.851562"/><stop stop-opacity="1" stop-color="rgb(72.645569%, 49.726868%, 24.061584%)" offset="0.855469"/><stop stop-opacity="1" stop-color="rgb(73.370361%, 49.781799%, 23.5672%)" offset="0.859375"/><stop stop-opacity="1" stop-color="rgb(74.095154%, 49.835205%, 23.071289%)" offset="0.863281"/><stop stop-opacity="1" stop-color="rgb(74.819946%, 49.890137%, 22.575378%)" offset="0.867187"/><stop stop-opacity="1" stop-color="rgb(75.544739%, 49.943542%, 22.079468%)" offset="0.871094"/><stop stop-opacity="1" stop-color="rgb(76.269531%, 49.998474%, 21.585083%)" offset="0.875"/><stop stop-opacity="1" stop-color="rgb(76.994324%, 50.05188%, 21.089172%)" offset="0.878906"/><stop stop-opacity="1" stop-color="rgb(77.719116%, 50.106812%, 20.594788%)" offset="0.882812"/><stop stop-opacity="1" stop-color="rgb(78.443909%, 50.160217%, 20.098877%)" offset="0.886719"/><stop stop-opacity="1" stop-color="rgb(79.168701%, 50.215149%, 19.604492%)" offset="0.890625"/><stop stop-opacity="1" stop-color="rgb(79.893494%, 50.268555%, 19.108582%)" offset="0.894531"/><stop stop-opacity="1" stop-color="rgb(80.618286%, 50.323486%, 18.614197%)" offset="0.898437"/><stop stop-opacity="1" stop-color="rgb(81.343079%, 50.376892%, 18.118286%)" offset="0.902344"/><stop stop-opacity="1" stop-color="rgb(82.067871%, 50.431824%, 17.623901%)" offset="0.90625"/><stop stop-opacity="1" stop-color="rgb(82.792664%, 50.485229%, 17.127991%)" offset="0.910156"/><stop stop-opacity="1" stop-color="rgb(83.517456%, 50.540161%, 16.633606%)" offset="0.914062"/><stop stop-opacity="1" stop-color="rgb(83.908081%, 50.569153%, 16.366577%)" offset="0.917969"/><stop stop-opacity="1" stop-color="rgb(84.298706%, 50.59967%, 16.099548%)" offset="0.921875"/><stop stop-opacity="1" stop-color="rgb(84.298706%, 50.59967%, 16.099548%)" offset="0.9375"/><stop stop-opacity="1" stop-color="rgb(84.298706%, 50.59967%, 16.099548%)" offset="1"/></linearGradient><clipPath id="33ccd4868d"><path d="M 1050 736.507812 L 1950 736.507812 L 1950 1636.507812 L 1050 1636.507812 Z M 1050 736.507812 " clip-rule="nonzero"/></clipPath><clipPath id="f24d925366"><path d="M 1500 736.507812 C 1251.472656 736.507812 1050 937.980469 1050 1186.507812 C 1050 1435.035156 1251.472656 1636.507812 1500 1636.507812 C 1748.527344 1636.507812 1950 1435.035156 1950 1186.507812 C 1950 937.980469 1748.527344 736.507812 1500 736.507812 Z M 1500 736.507812 " clip-rule="nonzero"/></clipPath></defs><g clip-path="url(#45284d7253)"><path fill="#081b29" d="M 1128.03125 869.308594 C 1131.640625 872.878906 1136.347656 874.683594 1141.09375 874.683594 C 1145.878906 874.683594 1150.667969 872.839844 1154.277344 869.191406 L 1180.445312 842.746094 C 1187.664062 835.488281 1187.585938 823.71875 1180.328125 816.5 L 1029.671875 667.296875 C 1022.414062 660.117188 1010.644531 660.15625 1003.425781 667.414062 L 977.257812 693.855469 C 973.765625 697.347656 971.84375 702.054688 971.882812 707 C 971.921875 711.945312 973.882812 716.613281 977.375 720.105469 Z M 1873.03125 1502.648438 C 1865.769531 1495.429688 1854 1495.507812 1846.78125 1502.765625 L 1820.613281 1529.210938 C 1817.121094 1532.742188 1815.238281 1537.410156 1815.238281 1542.355469 C 1815.277344 1547.296875 1817.238281 1551.964844 1820.730469 1555.457031 L 1971.386719 1704.660156 C 1974.996094 1708.230469 1979.742188 1710.035156 1984.453125 1710.035156 C 1989.238281 1710.035156 1994.023438 1708.191406 1997.632812 1704.542969 L 2023.800781 1678.101562 C 2027.292969 1674.609375 2029.21875 1669.941406 2029.175781 1664.996094 C 2029.175781 1660.015625 2027.214844 1655.34375 2023.683594 1651.894531 Z M 1155.886719 1505.671875 C 1148.628906 1498.492188 1136.816406 1498.53125 1129.597656 1505.789062 L 980.238281 1656.246094 C 976.746094 1659.777344 974.824219 1664.449219 974.863281 1669.429688 C 974.863281 1674.375 976.824219 1679.003906 980.316406 1682.496094 L 1006.71875 1708.703125 C 1010.328125 1712.3125 1015.078125 1714.078125 1019.824219 1714.078125 C 1024.570312 1714.078125 1029.359375 1712.273438 1032.96875 1708.625 L 1182.367188 1558.164062 C 1185.859375 1554.632812 1187.78125 1549.964844 1187.742188 1544.980469 C 1187.742188 1540.039062 1185.78125 1535.371094 1182.25 1531.878906 Z M 1843.054688 866.285156 C 1846.546875 869.777344 1851.175781 871.660156 1856.121094 871.660156 C 1856.160156 871.660156 1856.160156 871.660156 1856.199219 871.660156 C 1861.140625 871.660156 1865.808594 869.699219 1869.300781 866.207031 L 2018.664062 715.75 C 2025.882812 708.453125 2025.84375 696.683594 2018.585938 689.460938 L 1992.179688 663.253906 C 1984.921875 656.074219 1973.152344 656.113281 1965.933594 663.332031 L 1816.535156 813.832031 C 1813.042969 817.363281 1811.160156 822.03125 1811.160156 826.976562 C 1811.160156 831.917969 1813.121094 836.585938 1816.652344 840.078125 Z M 1025.671875 1218.011719 C 1029.160156 1214.480469 1031.085938 1209.851562 1031.085938 1204.871094 L 1031.046875 1167.675781 C 1031.007812 1162.734375 1029.082031 1158.0625 1025.589844 1154.574219 C 1022.0625 1151.082031 1017.429688 1149.160156 1012.488281 1149.160156 C 1012.449219 1149.160156 1012.449219 1149.160156 1012.449219 1149.160156 L 800.433594 1149.394531 C 795.449219 1149.394531 790.820312 1151.316406 787.289062 1154.847656 C 783.796875 1158.339844 781.875 1163.007812 781.875 1167.992188 L 781.914062 1205.183594 C 781.914062 1215.382812 790.269531 1223.703125 800.511719 1223.703125 L 1012.527344 1223.464844 C 1017.46875 1223.464844 1022.140625 1221.503906 1025.671875 1218.011719 Z M 2218.085938 1166.34375 C 2218.085938 1161.398438 2216.125 1156.730469 2212.632812 1153.238281 C 2209.140625 1149.746094 2204.472656 1147.824219 2199.527344 1147.824219 C 2199.527344 1147.824219 2199.488281 1147.824219 2199.488281 1147.824219 L 1987.472656 1148.058594 C 1977.234375 1148.058594 1968.914062 1156.417969 1968.914062 1166.65625 L 1968.953125 1203.847656 C 1968.953125 1208.792969 1970.917969 1213.460938 1974.40625 1216.953125 C 1977.9375 1220.445312 1982.570312 1222.367188 1987.511719 1222.367188 C 1987.511719 1222.367188 1987.550781 1222.367188 1987.550781 1222.367188 L 2199.566406 1222.132812 C 2209.808594 1222.132812 2218.125 1213.777344 2218.125 1203.535156 Z M 1517.8125 1655.464844 L 1480.617188 1655.464844 C 1470.378906 1655.464844 1462.0625 1663.820312 1462.0625 1674.019531 L 1462.0625 1886.074219 C 1462.0625 1896.316406 1470.378906 1904.632812 1480.617188 1904.632812 L 1517.8125 1904.632812 C 1528.050781 1904.632812 1536.367188 1896.316406 1536.367188 1886.074219 L 1536.367188 1674.019531 C 1536.367188 1663.820312 1528.050781 1655.464844 1517.8125 1655.464844 Z M 1480.617188 717.59375 L 1517.8125 717.59375 C 1528.050781 717.59375 1536.367188 709.234375 1536.367188 699.035156 L 1536.367188 486.980469 C 1536.367188 476.738281 1528.050781 468.421875 1517.8125 468.421875 L 1480.617188 468.421875 C 1470.378906 468.421875 1462.0625 476.738281 1462.0625 486.980469 L 1462.0625 699.035156 C 1462.0625 709.234375 1470.378906 717.59375 1480.617188 717.59375 Z M 1895.273438 1186.546875 C 1895.273438 1404.878906 1717.585938 1582.566406 1499.214844 1582.566406 C 1280.84375 1582.566406 1103.195312 1404.878906 1103.195312 1186.546875 C 1103.195312 968.175781 1280.84375 790.488281 1499.214844 790.488281 C 1717.585938 790.488281 1895.273438 968.175781 1895.273438 1186.546875 " fill-opacity="1" fill-rule="nonzero"/></g><g clip-path="url(#8044e5cafd)"><g clip-path="url(#2671d4b6f2)"><g clip-path="url(#a107b6e468)"><g clip-path="url(#528d3ffbc5)"><path fill="url(#c5f974c98e)" d="M 1193.929688 841.714844 L 1163.300781 1531.445312 L 1860.085938 1562.382812 L 1890.714844 872.65625 Z M 1193.929688 841.714844 " fill-rule="nonzero"/></g></g></g></g><g fill="#081b29" fill-opacity="1"><g transform="translate(889.722621, 2112.583372)"><g><path d="M 77.6875 0 L 46.5625 -48.15625 C 43.425781 -48.207031 39.046875 -48.390625 33.421875 -48.703125 L 33.421875 0 L 11.9375 0 L 11.9375 -116.59375 C 13.101562 -116.59375 17.585938 -116.789062 25.390625 -117.1875 C 33.191406 -117.59375 39.476562 -117.796875 44.25 -117.796875 C 73.851562 -117.796875 88.65625 -106.332031 88.65625 -83.40625 C 88.65625 -76.507812 86.613281 -70.222656 82.53125 -64.546875 C 78.445312 -58.867188 73.300781 -54.863281 67.09375 -52.53125 L 101.5625 0 Z M 33.421875 -98.609375 L 33.421875 -66.21875 C 37.242188 -65.894531 40.164062 -65.734375 42.1875 -65.734375 C 50.832031 -65.734375 57.15625 -66.953125 61.15625 -69.390625 C 65.164062 -71.835938 67.171875 -76.59375 67.171875 -83.65625 C 67.171875 -89.382812 65.019531 -93.390625 60.71875 -95.671875 C 56.425781 -97.953125 49.664062 -99.09375 40.4375 -99.09375 C 38.207031 -99.09375 35.867188 -98.929688 33.421875 -98.609375 Z M 33.421875 -98.609375 "/></g></g></g><g fill="#081b29" fill-opacity="1"><g transform="translate(989.287131, 2112.583372)"><g><path d="M 58.1875 -8.515625 C 56.375 -5.546875 53.226562 -3.117188 48.75 -1.234375 C 44.269531 0.648438 39.585938 1.59375 34.703125 1.59375 C 25.523438 1.59375 18.304688 -0.695312 13.046875 -5.28125 C 7.796875 -9.875 5.171875 -16.390625 5.171875 -24.828125 C 5.171875 -34.703125 8.867188 -42.421875 16.265625 -47.984375 C 23.671875 -53.554688 34.191406 -56.34375 47.828125 -56.34375 C 50.160156 -56.34375 52.921875 -55.945312 56.109375 -55.15625 C 56.109375 -65.1875 49.769531 -70.203125 37.09375 -70.203125 C 29.601562 -70.203125 23.34375 -68.953125 18.3125 -66.453125 L 14.015625 -81.890625 C 20.859375 -85.179688 29 -86.828125 38.4375 -86.828125 C 51.4375 -86.828125 60.960938 -83.867188 67.015625 -77.953125 C 73.066406 -72.035156 76.09375 -60.828125 76.09375 -44.328125 L 76.09375 -26.109375 C 76.09375 -14.753906 78.375 -7.617188 82.9375 -4.703125 C 81.289062 -1.828125 79.457031 -0.0625 77.4375 0.59375 C 75.425781 1.257812 73.117188 1.59375 70.515625 1.59375 C 67.648438 1.59375 65.078125 0.53125 62.796875 -1.59375 C 60.515625 -3.71875 58.976562 -6.023438 58.1875 -8.515625 Z M 56.265625 -40.109375 C 52.867188 -40.796875 50.320312 -41.140625 48.625 -41.140625 C 32.925781 -41.140625 25.078125 -35.992188 25.078125 -25.703125 C 25.078125 -18.066406 29.503906 -14.25 38.359375 -14.25 C 50.296875 -14.25 56.265625 -20.21875 56.265625 -32.15625 Z M 56.265625 -40.109375 "/></g></g></g><g fill="#081b29" fill-opacity="1"><g transform="translate(1076.117572, 2112.583372)"><g><path d="M 20.859375 -68.921875 L 14.25 -77.765625 C 19.1875 -81.523438 22.207031 -84.304688 23.3125 -86.109375 C 24.425781 -87.921875 24.984375 -89.832031 24.984375 -91.84375 C 24.984375 -93.96875 23.679688 -96.328125 21.078125 -98.921875 C 18.484375 -101.523438 17.1875 -104.3125 17.1875 -107.28125 C 17.1875 -115.882812 21.429688 -120.1875 29.921875 -120.1875 C 34.222656 -120.1875 37.550781 -118.804688 39.90625 -116.046875 C 42.269531 -113.285156 43.453125 -109.570312 43.453125 -104.90625 C 43.453125 -90.257812 35.921875 -78.265625 20.859375 -68.921875 Z M 20.859375 -68.921875 "/></g></g></g><g fill="#081b29" fill-opacity="1"><g transform="translate(1135.967698, 2112.583372)"><g><path d="M 79.984375 0 L 71.46875 -23.640625 L 31.515625 -23.640625 L 23.40625 0 L 0.390625 0 L 46.875 -118.1875 L 55.953125 -118.1875 L 102.828125 0 Z M 51.421875 -82.53125 L 37.40625 -39.484375 L 65.421875 -39.484375 Z M 51.421875 -82.53125 "/></g></g></g><g fill="#081b29" fill-opacity="1"><g transform="translate(1239.193263, 2112.583372)"><g><path d="M 5.484375 -5.484375 L 12.578125 -21.328125 C 18.515625 -16.609375 25.226562 -14.25 32.71875 -14.25 C 40.457031 -14.25 44.328125 -17.007812 44.328125 -22.53125 C 44.328125 -25.757812 43.160156 -28.410156 40.828125 -30.484375 C 38.492188 -32.554688 33.957031 -35 27.21875 -37.8125 C 12.519531 -43.90625 5.171875 -52.445312 5.171875 -63.4375 C 5.171875 -70.8125 7.984375 -76.550781 13.609375 -80.65625 C 19.234375 -84.769531 26.421875 -86.828125 35.171875 -86.828125 C 44.035156 -86.828125 52.367188 -84.835938 60.171875 -80.859375 L 54.4375 -65.421875 C 50.082031 -69.140625 44.035156 -71 36.296875 -71 C 29.335938 -71 25.859375 -68.238281 25.859375 -62.71875 C 25.859375 -60.539062 27 -58.578125 29.28125 -56.828125 C 31.570312 -55.078125 36.457031 -52.726562 43.9375 -49.78125 C 51.414062 -46.832031 56.800781 -43.265625 60.09375 -39.078125 C 63.382812 -34.890625 65.03125 -29.820312 65.03125 -23.875 C 65.03125 -15.96875 62.097656 -9.742188 56.234375 -5.203125 C 50.367188 -0.671875 42.394531 1.59375 32.3125 1.59375 C 26.632812 1.59375 22.082031 1.128906 18.65625 0.203125 C 15.238281 -0.722656 10.847656 -2.617188 5.484375 -5.484375 Z M 5.484375 -5.484375 "/></g></g></g><g fill="#081b29" fill-opacity="1"><g transform="translate(1309.389809, 2112.583372)"><g><path d="M 26.34375 -118.265625 C 29.53125 -118.265625 32.25 -117.132812 34.5 -114.875 C 36.757812 -112.625 37.890625 -109.910156 37.890625 -106.734375 C 37.890625 -103.546875 36.757812 -100.820312 34.5 -98.5625 C 32.25 -96.3125 29.53125 -95.1875 26.34375 -95.1875 C 23.15625 -95.1875 20.429688 -96.3125 18.171875 -98.5625 C 15.921875 -100.820312 14.796875 -103.546875 14.796875 -106.734375 C 14.796875 -109.910156 15.921875 -112.625 18.171875 -114.875 C 20.429688 -117.132812 23.15625 -118.265625 26.34375 -118.265625 Z M 16.078125 0 L 16.078125 -68.921875 L 5.171875 -68.921875 L 5.171875 -85.234375 L 36.21875 -85.234375 L 36.21875 0 Z M 16.078125 0 "/></g></g></g><g fill="#081b29" fill-opacity="1"><g transform="translate(1358.018041, 2112.583372)"><g><path d="M 5.484375 -5.484375 L 12.578125 -21.328125 C 18.515625 -16.609375 25.226562 -14.25 32.71875 -14.25 C 40.457031 -14.25 44.328125 -17.007812 44.328125 -22.53125 C 44.328125 -25.757812 43.160156 -28.410156 40.828125 -30.484375 C 38.492188 -32.554688 33.957031 -35 27.21875 -37.8125 C 12.519531 -43.90625 5.171875 -52.445312 5.171875 -63.4375 C 5.171875 -70.8125 7.984375 -76.550781 13.609375 -80.65625 C 19.234375 -84.769531 26.421875 -86.828125 35.171875 -86.828125 C 44.035156 -86.828125 52.367188 -84.835938 60.171875 -80.859375 L 54.4375 -65.421875 C 50.082031 -69.140625 44.035156 -71 36.296875 -71 C 29.335938 -71 25.859375 -68.238281 25.859375 -62.71875 C 25.859375 -60.539062 27 -58.578125 29.28125 -56.828125 C 31.570312 -55.078125 36.457031 -52.726562 43.9375 -49.78125 C 51.414062 -46.832031 56.800781 -43.265625 60.09375 -39.078125 C 63.382812 -34.890625 65.03125 -29.820312 65.03125 -23.875 C 65.03125 -15.96875 62.097656 -9.742188 56.234375 -5.203125 C 50.367188 -0.671875 42.394531 1.59375 32.3125 1.59375 C 26.632812 1.59375 22.082031 1.128906 18.65625 0.203125 C 15.238281 -0.722656 10.847656 -2.617188 5.484375 -5.484375 Z M 5.484375 -5.484375 "/></g></g></g><g fill="#081b29" fill-opacity="1"><g transform="translate(1428.214586, 2112.583372)"><g/></g></g><g fill="#081b29" fill-opacity="1"><g transform="translate(1477.320358, 2112.583372)"><g><path d="M 6.375 -6.453125 L 14.015625 -24.984375 C 22.179688 -19.253906 30.21875 -16.390625 38.125 -16.390625 C 50.269531 -16.390625 56.34375 -20.632812 56.34375 -29.125 C 56.34375 -33.101562 54.910156 -36.894531 52.046875 -40.5 C 49.179688 -44.113281 43.28125 -48.160156 34.34375 -52.640625 C 25.40625 -57.128906 19.382812 -60.816406 16.28125 -63.703125 C 13.175781 -66.597656 10.785156 -70.035156 9.109375 -74.015625 C 7.441406 -77.992188 6.609375 -82.398438 6.609375 -87.234375 C 6.609375 -96.253906 9.910156 -103.734375 16.515625 -109.671875 C 23.117188 -115.617188 31.59375 -118.59375 41.9375 -118.59375 C 55.414062 -118.59375 65.3125 -116.070312 71.625 -111.03125 L 65.34375 -93.203125 C 58.070312 -98.398438 50.40625 -101 42.34375 -101 C 37.5625 -101 33.859375 -99.738281 31.234375 -97.21875 C 28.609375 -94.695312 27.296875 -91.421875 27.296875 -87.390625 C 27.296875 -80.703125 34.695312 -73.75 49.5 -66.53125 C 57.300781 -62.71875 62.925781 -59.203125 66.375 -55.984375 C 69.820312 -52.773438 72.445312 -49.035156 74.25 -44.765625 C 76.0625 -40.492188 76.96875 -35.734375 76.96875 -30.484375 C 76.96875 -21.035156 73.238281 -13.257812 65.78125 -7.15625 C 58.320312 -1.0625 48.332031 1.984375 35.8125 1.984375 C 24.9375 1.984375 15.125 -0.828125 6.375 -6.453125 Z M 6.375 -6.453125 "/></g></g></g><g fill="#081b29" fill-opacity="1"><g transform="translate(1560.648952, 2112.583372)"><g><path d="M 5.171875 -42.8125 C 5.171875 -55.8125 8.925781 -66.394531 16.4375 -74.5625 C 23.945312 -82.738281 33.851562 -86.828125 46.15625 -86.828125 C 59.101562 -86.828125 69.160156 -82.898438 76.328125 -75.046875 C 83.492188 -67.203125 87.078125 -56.457031 87.078125 -42.8125 C 87.078125 -29.226562 83.425781 -18.429688 76.125 -10.421875 C 68.832031 -2.410156 58.84375 1.59375 46.15625 1.59375 C 33.21875 1.59375 23.148438 -2.453125 15.953125 -10.546875 C 8.765625 -18.640625 5.171875 -29.394531 5.171875 -42.8125 Z M 25.859375 -42.8125 C 25.859375 -24.03125 32.625 -14.640625 46.15625 -14.640625 C 52.363281 -14.640625 57.285156 -17.082031 60.921875 -21.96875 C 64.554688 -26.851562 66.375 -33.800781 66.375 -42.8125 C 66.375 -61.332031 59.632812 -70.59375 46.15625 -70.59375 C 39.945312 -70.59375 35.007812 -68.148438 31.34375 -63.265625 C 27.6875 -58.390625 25.859375 -51.570312 25.859375 -42.8125 Z M 25.859375 -42.8125 "/></g></g></g><g fill="#081b29" fill-opacity="1"><g transform="translate(1652.891349, 2112.583372)"><g><path d="M 58.265625 -101.953125 C 53.910156 -103.390625 50.566406 -104.109375 48.234375 -104.109375 C 44.460938 -104.109375 41.265625 -102.488281 38.640625 -99.25 C 36.015625 -96.007812 34.703125 -92.03125 34.703125 -87.3125 C 34.703125 -86.625 34.726562 -85.929688 34.78125 -85.234375 L 52.453125 -85.234375 L 52.453125 -68.84375 L 35.09375 -68.84375 L 35.09375 0 L 15.203125 0 L 15.203125 -68.84375 L 2.78125 -68.84375 L 2.78125 -85.234375 L 15.28125 -85.234375 C 15.707031 -95.691406 18.796875 -104.128906 24.546875 -110.546875 C 30.304688 -116.972656 37.75 -120.1875 46.875 -120.1875 C 51.601562 -120.1875 57.363281 -119.148438 64.15625 -117.078125 Z M 58.265625 -101.953125 "/></g></g></g><g fill="#081b29" fill-opacity="1"><g transform="translate(1713.139454, 2112.583372)"><g><path d="M 13.765625 -69.25 L 3.90625 -69.25 L 3.90625 -85.234375 L 13.765625 -85.234375 L 13.765625 -102.59375 L 33.671875 -109.90625 L 33.671875 -85.234375 L 57.0625 -85.234375 L 57.0625 -69.25 L 33.671875 -69.25 L 33.671875 -31.921875 C 33.671875 -25.816406 34.625 -21.503906 36.53125 -18.984375 C 38.4375 -16.460938 41.78125 -15.203125 46.5625 -15.203125 C 51.332031 -15.203125 55.789062 -16.503906 59.9375 -19.109375 L 59.9375 -0.796875 C 55.3125 0.796875 48.726562 1.59375 40.1875 1.59375 C 31.695312 1.59375 25.171875 -0.804688 20.609375 -5.609375 C 16.046875 -10.410156 13.765625 -17.242188 13.765625 -26.109375 Z M 13.765625 -69.25 "/></g></g></g><g fill="#081b29" fill-opacity="1"><g transform="translate(1777.764878, 2112.583372)"><g><path d="M 94.46875 1.59375 L 87.234375 1.59375 L 63.828125 -50.78125 L 40.515625 1.59375 L 33.1875 1.59375 L 1.03125 -85.234375 L 21.96875 -85.234375 L 39.078125 -34.390625 L 59.9375 -85.234375 L 67.09375 -85.234375 L 88.65625 -34.0625 L 107.125 -85.234375 L 126.703125 -85.234375 Z M 94.46875 1.59375 "/></g></g></g><g fill="#081b29" fill-opacity="1"><g transform="translate(1905.503552, 2112.583372)"><g><path d="M 58.1875 -8.515625 C 56.375 -5.546875 53.226562 -3.117188 48.75 -1.234375 C 44.269531 0.648438 39.585938 1.59375 34.703125 1.59375 C 25.523438 1.59375 18.304688 -0.695312 13.046875 -5.28125 C 7.796875 -9.875 5.171875 -16.390625 5.171875 -24.828125 C 5.171875 -34.703125 8.867188 -42.421875 16.265625 -47.984375 C 23.671875 -53.554688 34.191406 -56.34375 47.828125 -56.34375 C 50.160156 -56.34375 52.921875 -55.945312 56.109375 -55.15625 C 56.109375 -65.1875 49.769531 -70.203125 37.09375 -70.203125 C 29.601562 -70.203125 23.34375 -68.953125 18.3125 -66.453125 L 14.015625 -81.890625 C 20.859375 -85.179688 29 -86.828125 38.4375 -86.828125 C 51.4375 -86.828125 60.960938 -83.867188 67.015625 -77.953125 C 73.066406 -72.035156 76.09375 -60.828125 76.09375 -44.328125 L 76.09375 -26.109375 C 76.09375 -14.753906 78.375 -7.617188 82.9375 -4.703125 C 81.289062 -1.828125 79.457031 -0.0625 77.4375 0.59375 C 75.425781 1.257812 73.117188 1.59375 70.515625 1.59375 C 67.648438 1.59375 65.078125 0.53125 62.796875 -1.59375 C 60.515625 -3.71875 58.976562 -6.023438 58.1875 -8.515625 Z M 56.265625 -40.109375 C 52.867188 -40.796875 50.320312 -41.140625 48.625 -41.140625 C 32.925781 -41.140625 25.078125 -35.992188 25.078125 -25.703125 C 25.078125 -18.066406 29.503906 -14.25 38.359375 -14.25 C 50.296875 -14.25 56.265625 -20.21875 56.265625 -32.15625 Z M 56.265625 -40.109375 "/></g></g></g><g fill="#081b29" fill-opacity="1"><g transform="translate(1992.333993, 2112.583372)"><g><path d="M 60.015625 -66.703125 C 56.453125 -69.035156 52.550781 -70.203125 48.3125 -70.203125 C 43.695312 -70.203125 39.597656 -68.101562 36.015625 -63.90625 C 32.429688 -59.71875 30.640625 -54.597656 30.640625 -48.546875 L 30.640625 0 L 10.75 0 L 10.75 -85.234375 L 30.640625 -85.234375 L 30.640625 -77.4375 C 36.210938 -83.695312 43.613281 -86.828125 52.84375 -86.828125 C 59.632812 -86.828125 64.835938 -85.796875 68.453125 -83.734375 Z M 60.015625 -66.703125 "/></g></g></g><g fill="#081b29" fill-opacity="1"><g transform="translate(2061.973486, 2112.583372)"><g><path d="M 86.828125 -36.53125 L 25.953125 -36.53125 C 26.316406 -29.738281 28.644531 -24.457031 32.9375 -20.6875 C 37.238281 -16.925781 43.023438 -15.046875 50.296875 -15.046875 C 59.367188 -15.046875 66.269531 -17.40625 71 -22.125 L 78.71875 -6.921875 C 71.707031 -1.242188 61.253906 1.59375 47.359375 1.59375 C 34.359375 1.59375 24.078125 -2.210938 16.515625 -9.828125 C 8.953125 -17.441406 5.171875 -28.066406 5.171875 -41.703125 C 5.171875 -55.128906 9.320312 -66.003906 17.625 -74.328125 C 25.925781 -82.660156 35.890625 -86.828125 47.515625 -86.828125 C 59.878906 -86.828125 69.800781 -83.140625 77.28125 -75.765625 C 84.757812 -68.390625 88.5 -59 88.5 -47.59375 C 88.5 -45.15625 87.941406 -41.46875 86.828125 -36.53125 Z M 26.65625 -51.5 L 68.53125 -51.5 C 67.144531 -63.96875 60.242188 -70.203125 47.828125 -70.203125 C 36.472656 -70.203125 29.414062 -63.96875 26.65625 -51.5 Z M 26.65625 -51.5 "/></g></g></g><g clip-path="url(#33ccd4868d)"><g clip-path="url(#f24d925366)"><path stroke-linecap="butt" transform="matrix(0.75, 0, 0, 0.75, 1049.999958, 736.508515)" fill="none" stroke-linejoin="miter" d="M 600.000083 -0.000936149 C 268.630277 -0.000936149 0.0000561333 268.629284 0.0000561333 599.999091 C 0.0000561333 931.368898 268.630277 1199.999118 600.000083 1199.999118 C 931.36989 1199.999118 1200.000111 931.368898 1200.000111 599.999091 C 1200.000111 268.629284 931.36989 -0.000936149 600.000083 -0.000936149 Z M 600.000083 -0.000936149 " stroke="#081b29" stroke-width="90" stroke-opacity="1" stroke-miterlimit="4"/></g></g></svg>