<svg xmlns="http://www.w3.org/2000/svg" xmlns:xlink="http://www.w3.org/1999/xlink" width="4000" zoomAndPan="magnify" viewBox="0 0 3000 2999.999989" height="4000" preserveAspectRatio="xMidYMid meet" version="1.0"><defs><g/><clipPath id="2b95450071"><path d="M 1213 1017 L 1886 1017 L 1886 1659 L 1213 1659 Z M 1213 1017 " clip-rule="nonzero"/></clipPath><clipPath id="f651cb374d"><path d="M 1307.6875 954.855469 L 1949.714844 1131.941406 L 1772.628906 1773.964844 L 1130.601562 1596.882812 Z M 1307.6875 954.855469 " clip-rule="nonzero"/></clipPath><clipPath id="2f38944777"><path d="M 1307.6875 954.855469 L 1949.714844 1131.941406 L 1772.628906 1773.964844 L 1130.601562 1596.882812 Z M 1307.6875 954.855469 " clip-rule="nonzero"/></clipPath><clipPath id="09b27d2560"><path d="M 1674.738281 1463.523438 L 1744.628906 1535.609375 C 1752.230469 1543.390625 1752.128906 1555.550781 1744.34375 1563.152344 C 1704.566406 1601.332031 1656.027344 1628.5625 1603.441406 1642.492188 C 1552.296875 1655.601562 1497.003906 1655.789062 1442.644531 1640.792969 C 1438.871094 1639.753906 1433.960938 1638.398438 1428.402344 1636.460938 L 1427.648438 1636.25 C 1418.757812 1646.390625 1407.097656 1653.332031 1394.378906 1656.726562 C 1377.742188 1661.078125 1359.652344 1658.929688 1343.914062 1649.714844 C 1327.796875 1640.394531 1317.332031 1625.320312 1312.878906 1609.0625 C 1308.53125 1592.429688 1310.679688 1574.335938 1319.996094 1558.21875 C 1329.214844 1542.484375 1344.390625 1531.640625 1360.542969 1527.566406 C 1377.179688 1523.214844 1395.753906 1525.089844 1411.492188 1534.304688 C 1427.125 1543.898438 1438.074219 1558.699219 1442.421875 1575.332031 C 1444.320312 1583.167969 1444.777344 1591.824219 1444.101562 1600.167969 C 1446.742188 1600.898438 1449.660156 1602.109375 1453.058594 1603.046875 C 1500.621094 1616.164062 1549.082031 1615.71875 1593.625 1604.445312 C 1633.496094 1593.914062 1670.8125 1574.960938 1702.519531 1548.367188 L 1646.808594 1491.160156 C 1638.957031 1497.523438 1630.5625 1502.925781 1621.789062 1508.226562 C 1578.546875 1532.449219 1525.910156 1540.679688 1474.191406 1526.414062 C 1422.855469 1512.253906 1381.875 1478.203125 1357.167969 1435.238281 C 1352.078125 1425.707031 1347.199219 1415.425781 1343.550781 1405.078125 L 1246.359375 1429.046875 C 1235.839844 1431.832031 1225.074219 1425.207031 1222.667969 1414.792969 L 1222.289062 1414.6875 C 1216.183594 1388.226562 1213.03125 1361.359375 1213.488281 1334.675781 C 1213.835938 1308.367188 1217.414062 1282.140625 1224.601562 1256.09375 C 1233.347656 1224.382812 1246.6875 1195.160156 1263.660156 1168.96875 C 1279.148438 1145.214844 1297.515625 1124.28125 1318.003906 1105.96875 C 1313.472656 1092.9375 1313.511719 1079.542969 1317.050781 1066.707031 C 1321.527344 1050.476562 1332.148438 1035.53125 1348.421875 1026.617188 C 1364.417969 1017.21875 1382.691406 1015.757812 1398.925781 1020.234375 C 1415.535156 1024.816406 1430.476562 1035.4375 1439.394531 1051.707031 C 1448.417969 1067.601562 1450.253906 1085.980469 1445.773438 1102.214844 C 1441.195312 1118.824219 1430.195312 1133.664062 1414.300781 1142.683594 C 1398.410156 1151.703125 1380.03125 1153.539062 1363.417969 1148.960938 C 1355.492188 1146.773438 1347.980469 1143.078125 1341.265625 1137.972656 C 1324.460938 1153.242188 1309.402344 1171.023438 1296.777344 1190.289062 C 1281.871094 1213.394531 1269.949219 1238.949219 1262.347656 1266.503906 C 1255.996094 1289.53125 1252.875 1312.636719 1252.707031 1335.335938 C 1252.484375 1352.335938 1253.878906 1369.375 1256.613281 1385.972656 L 1334.113281 1367.132812 C 1330.273438 1341.296875 1331.585938 1314.441406 1338.980469 1287.640625 C 1353.140625 1236.300781 1387.191406 1195.324219 1430.15625 1170.617188 C 1468.101562 1149.398438 1513.152344 1140.703125 1558.1875 1148.25 L 1584.84375 1051.613281 C 1587.757812 1041.042969 1598.730469 1035.132812 1608.925781 1037.945312 C 1668.566406 1054.394531 1719.648438 1087.167969 1758.125 1130.277344 C 1795.132812 1171.359375 1821.089844 1221.578125 1832.027344 1276.179688 C 1845.550781 1278.691406 1857.554688 1285.253906 1866.351562 1294.585938 L 1866.730469 1294.691406 C 1878.40625 1306.847656 1885.984375 1323.558594 1885.722656 1342.175781 C 1885.566406 1360.410156 1878.136719 1377.046875 1865.875 1389.101562 C 1853.613281 1401.152344 1836.898438 1408.730469 1818.285156 1408.46875 C 1800.050781 1408.316406 1783.519531 1400.503906 1771.359375 1388.621094 L 1771.464844 1388.246094 L 1771.359375 1388.621094 C 1759.304688 1376.359375 1752.210938 1359.375 1751.988281 1341.035156 C 1752.144531 1322.796875 1759.953125 1306.265625 1772.214844 1294.210938 L 1772.320312 1293.832031 C 1777.96875 1288.082031 1785.023438 1283.121094 1792.792969 1279.984375 C 1782.691406 1234.140625 1760.355469 1191.417969 1728.996094 1156.367188 C 1699.484375 1123.449219 1661.539062 1097.546875 1617.554688 1081.757812 L 1596.316406 1158.765625 C 1638.855469 1175.375 1673.078125 1205.933594 1694.777344 1243.605469 C 1719.003906 1286.847656 1727.230469 1339.484375 1713.070312 1390.824219 C 1705.367188 1418.757812 1692.140625 1443.140625 1674.738281 1463.523438 Z M 1660.582031 1263.015625 C 1640.796875 1228.714844 1608.007812 1201.796875 1566.859375 1190.449219 C 1526.089844 1179.203125 1484.136719 1185.507812 1449.566406 1204.8125 C 1415.269531 1224.597656 1388.351562 1257.386719 1377.105469 1298.15625 C 1365.757812 1339.304688 1372.058594 1381.257812 1391.363281 1415.828125 C 1411.148438 1450.125 1443.941406 1477.042969 1484.710938 1488.289062 C 1525.855469 1499.636719 1567.808594 1493.335938 1602.378906 1474.03125 C 1636.679688 1454.242188 1663.597656 1421.453125 1674.945312 1380.308594 C 1686.191406 1339.539062 1679.886719 1297.585938 1660.582031 1263.015625 Z M 1546.867188 1262.925781 C 1568.007812 1268.757812 1584.867188 1282.75 1594.601562 1300.464844 C 1604.820312 1317.90625 1608.195312 1339.554688 1602.46875 1360.316406 C 1596.636719 1381.457031 1582.644531 1398.3125 1564.929688 1408.050781 C 1547.488281 1418.269531 1525.839844 1421.640625 1504.699219 1415.808594 C 1483.9375 1410.082031 1467.082031 1396.089844 1457.34375 1378.375 C 1447.125 1360.933594 1443.753906 1339.289062 1449.582031 1318.148438 C 1455.308594 1297.386719 1469.304688 1280.527344 1487.019531 1270.792969 C 1504.460938 1260.574219 1526.105469 1257.199219 1546.867188 1262.925781 Z M 1560.410156 1319.875 C 1555.59375 1310.828125 1547.300781 1304.074219 1536.351562 1301.054688 C 1525.78125 1298.136719 1515.199219 1299.6875 1506.425781 1304.984375 C 1497.382812 1309.800781 1490.625 1318.09375 1487.710938 1328.664062 C 1484.691406 1339.609375 1486.238281 1350.195312 1491.539062 1358.96875 C 1496.355469 1368.011719 1504.648438 1374.769531 1515.214844 1377.683594 C 1526.164062 1380.703125 1536.746094 1379.152344 1545.519531 1373.855469 C 1554.566406 1369.039062 1561.320312 1360.746094 1564.339844 1349.800781 C 1567.257812 1339.230469 1565.707031 1328.648438 1560.410156 1319.875 Z M 1388.511719 1057.984375 C 1381.71875 1056.109375 1374.195312 1056.878906 1367.828125 1060.808594 C 1361.191406 1064.257812 1356.675781 1070.324219 1354.800781 1077.121094 C 1352.925781 1083.914062 1353.695312 1091.4375 1357.519531 1098.179688 C 1360.972656 1104.820312 1367.035156 1109.335938 1373.832031 1111.210938 C 1380.625 1113.085938 1388.148438 1112.316406 1394.894531 1108.488281 C 1401.636719 1104.660156 1406.152344 1098.597656 1408.027344 1091.800781 C 1409.898438 1085.007812 1409.132812 1077.484375 1405.199219 1071.117188 C 1401.375 1064.375 1395.308594 1059.859375 1388.511719 1057.984375 Z M 1351.03125 1598.871094 C 1352.761719 1605.847656 1357.175781 1611.9375 1363.828125 1615.804688 C 1370.101562 1619.566406 1377.585938 1620.414062 1384.5625 1618.679688 C 1391.539062 1616.949219 1397.632812 1612.535156 1401.394531 1606.261719 C 1405.257812 1599.609375 1406.105469 1592.125 1404.375 1585.148438 C 1402.539062 1578.550781 1398.230469 1572.082031 1391.578125 1568.214844 C 1384.925781 1564.347656 1377.441406 1563.503906 1370.839844 1565.339844 C 1363.863281 1567.070312 1357.773438 1571.484375 1353.90625 1578.136719 C 1350.042969 1584.785156 1349.195312 1592.269531 1351.03125 1598.871094 Z M 1838.238281 1361.167969 C 1843.300781 1356.0625 1846.414062 1349.203125 1846.398438 1341.890625 C 1846.492188 1334.195312 1843.523438 1327.285156 1838.421875 1322.222656 C 1833.695312 1317.261719 1826.835938 1314.152344 1819.140625 1314.058594 C 1811.449219 1313.96875 1804.539062 1316.9375 1799.472656 1322.039062 C 1794.515625 1326.765625 1791.402344 1333.625 1791.3125 1341.316406 C 1791.222656 1349.011719 1794.566406 1356.027344 1799.292969 1360.984375 C 1804.394531 1366.050781 1811.257812 1369.160156 1818.949219 1369.25 C 1826.265625 1369.238281 1833.175781 1366.269531 1838.238281 1361.167969 Z M 1838.238281 1361.167969 " clip-rule="nonzero"/></clipPath><linearGradient x1="5.093623" gradientTransform="matrix(37.748932, 10.412011, -10.412011, 37.748932, 1307.688111, 954.855796)" y1="19.840278" x2="11.36122" gradientUnits="userSpaceOnUse" y2="-4.409934" id="225dfcab92"><stop stop-opacity="1" stop-color="rgb(3.09906%, 10.598755%, 16.099548%)" offset="0"/><stop stop-opacity="1" stop-color="rgb(3.09906%, 10.598755%, 16.099548%)" offset="0.015625"/><stop stop-opacity="1" stop-color="rgb(3.08075%, 10.791016%, 16.427612%)" offset="0.0195313"/><stop stop-opacity="1" stop-color="rgb(3.063965%, 10.984802%, 16.757202%)" offset="0.0234375"/><stop stop-opacity="1" stop-color="rgb(3.034973%, 11.29303%, 17.28363%)" offset="0.0273438"/><stop stop-opacity="1" stop-color="rgb(3.007507%, 11.601257%, 17.811584%)" offset="0.03125"/><stop stop-opacity="1" stop-color="rgb(2.978516%, 11.909485%, 18.339539%)" offset="0.0351563"/><stop stop-opacity="1" stop-color="rgb(2.949524%, 12.219238%, 18.867493%)" offset="0.0390625"/><stop stop-opacity="1" stop-color="rgb(2.920532%, 12.527466%, 19.395447%)" offset="0.0429688"/><stop stop-opacity="1" stop-color="rgb(2.893066%, 12.835693%, 19.923401%)" offset="0.046875"/><stop stop-opacity="1" stop-color="rgb(2.864075%, 13.143921%, 20.449829%)" offset="0.0507813"/><stop stop-opacity="1" stop-color="rgb(2.836609%, 13.453674%, 20.977783%)" offset="0.0546875"/><stop stop-opacity="1" stop-color="rgb(2.807617%, 13.761902%, 21.505737%)" offset="0.0585938"/><stop stop-opacity="1" stop-color="rgb(2.780151%, 14.071655%, 22.033691%)" offset="0.0625"/><stop stop-opacity="1" stop-color="rgb(2.75116%, 14.379883%, 22.56012%)" offset="0.0664063"/><stop stop-opacity="1" stop-color="rgb(2.723694%, 14.68811%, 23.088074%)" offset="0.0703125"/><stop stop-opacity="1" stop-color="rgb(2.694702%, 14.996338%, 23.616028%)" offset="0.0742188"/><stop stop-opacity="1" stop-color="rgb(2.66571%, 15.306091%, 24.143982%)" offset="0.078125"/><stop stop-opacity="1" stop-color="rgb(2.636719%, 15.614319%, 24.671936%)" offset="0.0820313"/><stop stop-opacity="1" stop-color="rgb(2.609253%, 15.924072%, 25.19989%)" offset="0.0859375"/><stop stop-opacity="1" stop-color="rgb(2.580261%, 16.2323%, 25.726318%)" offset="0.0898438"/><stop stop-opacity="1" stop-color="rgb(2.552795%, 16.540527%, 26.254272%)" offset="0.09375"/><stop stop-opacity="1" stop-color="rgb(2.523804%, 16.848755%, 26.782227%)" offset="0.0976563"/><stop stop-opacity="1" stop-color="rgb(2.496338%, 17.158508%, 27.310181%)" offset="0.101563"/><stop stop-opacity="1" stop-color="rgb(2.467346%, 17.466736%, 27.836609%)" offset="0.105469"/><stop stop-opacity="1" stop-color="rgb(2.438354%, 17.774963%, 28.364563%)" offset="0.109375"/><stop stop-opacity="1" stop-color="rgb(2.409363%, 18.083191%, 28.892517%)" offset="0.113281"/><stop stop-opacity="1" stop-color="rgb(2.381897%, 18.392944%, 29.420471%)" offset="0.117188"/><stop stop-opacity="1" stop-color="rgb(2.352905%, 18.701172%, 29.948425%)" offset="0.121094"/><stop stop-opacity="1" stop-color="rgb(2.325439%, 19.010925%, 30.476379%)" offset="0.125"/><stop stop-opacity="1" stop-color="rgb(2.296448%, 19.319153%, 31.002808%)" offset="0.128906"/><stop stop-opacity="1" stop-color="rgb(2.268982%, 19.62738%, 31.530762%)" offset="0.132813"/><stop stop-opacity="1" stop-color="rgb(2.23999%, 19.935608%, 32.058716%)" offset="0.136719"/><stop stop-opacity="1" stop-color="rgb(2.212524%, 20.245361%, 32.58667%)" offset="0.140625"/><stop stop-opacity="1" stop-color="rgb(2.183533%, 20.553589%, 33.113098%)" offset="0.144531"/><stop stop-opacity="1" stop-color="rgb(2.154541%, 20.863342%, 33.641052%)" offset="0.148438"/><stop stop-opacity="1" stop-color="rgb(2.125549%, 21.17157%, 34.169006%)" offset="0.152344"/><stop stop-opacity="1" stop-color="rgb(2.098083%, 21.479797%, 34.69696%)" offset="0.15625"/><stop stop-opacity="1" stop-color="rgb(2.069092%, 21.788025%, 35.224915%)" offset="0.160156"/><stop stop-opacity="1" stop-color="rgb(2.041626%, 22.097778%, 35.752869%)" offset="0.164063"/><stop stop-opacity="1" stop-color="rgb(2.012634%, 22.406006%, 36.279297%)" offset="0.167969"/><stop stop-opacity="1" stop-color="rgb(1.985168%, 22.715759%, 36.807251%)" offset="0.171875"/><stop stop-opacity="1" stop-color="rgb(1.956177%, 23.023987%, 37.335205%)" offset="0.175781"/><stop stop-opacity="1" stop-color="rgb(1.927185%, 23.332214%, 37.863159%)" offset="0.179688"/><stop stop-opacity="1" stop-color="rgb(1.898193%, 23.640442%, 38.389587%)" offset="0.183594"/><stop stop-opacity="1" stop-color="rgb(1.870728%, 23.950195%, 38.917542%)" offset="0.1875"/><stop stop-opacity="1" stop-color="rgb(1.841736%, 24.258423%, 39.445496%)" offset="0.191406"/><stop stop-opacity="1" stop-color="rgb(1.81427%, 24.56665%, 39.97345%)" offset="0.195313"/><stop stop-opacity="1" stop-color="rgb(1.785278%, 24.874878%, 40.501404%)" offset="0.199219"/><stop stop-opacity="1" stop-color="rgb(1.757812%, 25.184631%, 41.029358%)" offset="0.203125"/><stop stop-opacity="1" stop-color="rgb(1.728821%, 25.492859%, 41.555786%)" offset="0.207031"/><stop stop-opacity="1" stop-color="rgb(1.701355%, 25.802612%, 42.08374%)" offset="0.210938"/><stop stop-opacity="1" stop-color="rgb(1.672363%, 26.11084%, 42.611694%)" offset="0.214844"/><stop stop-opacity="1" stop-color="rgb(1.643372%, 26.419067%, 43.139648%)" offset="0.21875"/><stop stop-opacity="1" stop-color="rgb(1.61438%, 26.727295%, 43.666077%)" offset="0.222656"/><stop stop-opacity="1" stop-color="rgb(1.586914%, 27.037048%, 44.194031%)" offset="0.226562"/><stop stop-opacity="1" stop-color="rgb(1.557922%, 27.345276%, 44.721985%)" offset="0.230469"/><stop stop-opacity="1" stop-color="rgb(1.530457%, 27.655029%, 45.249939%)" offset="0.234375"/><stop stop-opacity="1" stop-color="rgb(1.501465%, 27.963257%, 45.777893%)" offset="0.238281"/><stop stop-opacity="1" stop-color="rgb(1.473999%, 28.271484%, 46.305847%)" offset="0.242188"/><stop stop-opacity="1" stop-color="rgb(1.445007%, 28.579712%, 46.832275%)" offset="0.246094"/><stop stop-opacity="1" stop-color="rgb(1.416016%, 28.889465%, 47.360229%)" offset="0.25"/><stop stop-opacity="1" stop-color="rgb(1.387024%, 29.197693%, 47.888184%)" offset="0.253906"/><stop stop-opacity="1" stop-color="rgb(1.359558%, 29.50592%, 48.416138%)" offset="0.257812"/><stop stop-opacity="1" stop-color="rgb(1.330566%, 29.814148%, 48.942566%)" offset="0.261719"/><stop stop-opacity="1" stop-color="rgb(1.303101%, 30.123901%, 49.47052%)" offset="0.265625"/><stop stop-opacity="1" stop-color="rgb(1.274109%, 30.432129%, 49.998474%)" offset="0.269531"/><stop stop-opacity="1" stop-color="rgb(1.246643%, 30.741882%, 50.526428%)" offset="0.273438"/><stop stop-opacity="1" stop-color="rgb(1.217651%, 31.05011%, 51.054382%)" offset="0.277344"/><stop stop-opacity="1" stop-color="rgb(1.190186%, 31.358337%, 51.582336%)" offset="0.28125"/><stop stop-opacity="1" stop-color="rgb(1.161194%, 31.666565%, 52.108765%)" offset="0.285156"/><stop stop-opacity="1" stop-color="rgb(1.132202%, 31.976318%, 52.636719%)" offset="0.289062"/><stop stop-opacity="1" stop-color="rgb(1.10321%, 32.284546%, 53.164673%)" offset="0.292969"/><stop stop-opacity="1" stop-color="rgb(1.075745%, 32.594299%, 53.692627%)" offset="0.296875"/><stop stop-opacity="1" stop-color="rgb(1.046753%, 32.902527%, 54.219055%)" offset="0.300781"/><stop stop-opacity="1" stop-color="rgb(1.019287%, 33.210754%, 54.747009%)" offset="0.304688"/><stop stop-opacity="1" stop-color="rgb(0.990295%, 33.518982%, 55.274963%)" offset="0.308594"/><stop stop-opacity="1" stop-color="rgb(0.96283%, 33.828735%, 55.802917%)" offset="0.3125"/><stop stop-opacity="1" stop-color="rgb(0.933838%, 34.136963%, 56.330872%)" offset="0.316406"/><stop stop-opacity="1" stop-color="rgb(0.906372%, 34.446716%, 56.858826%)" offset="0.320312"/><stop stop-opacity="1" stop-color="rgb(0.87738%, 34.754944%, 57.385254%)" offset="0.324219"/><stop stop-opacity="1" stop-color="rgb(0.848389%, 35.063171%, 57.913208%)" offset="0.328125"/><stop stop-opacity="1" stop-color="rgb(0.819397%, 35.371399%, 58.441162%)" offset="0.332031"/><stop stop-opacity="1" stop-color="rgb(0.791931%, 35.681152%, 58.969116%)" offset="0.335938"/><stop stop-opacity="1" stop-color="rgb(0.762939%, 35.98938%, 59.495544%)" offset="0.339844"/><stop stop-opacity="1" stop-color="rgb(0.735474%, 36.297607%, 60.023499%)" offset="0.34375"/><stop stop-opacity="1" stop-color="rgb(0.706482%, 36.605835%, 60.551453%)" offset="0.347656"/><stop stop-opacity="1" stop-color="rgb(0.679016%, 36.915588%, 61.079407%)" offset="0.351563"/><stop stop-opacity="1" stop-color="rgb(0.650024%, 37.223816%, 61.607361%)" offset="0.355469"/><stop stop-opacity="1" stop-color="rgb(0.621033%, 37.533569%, 62.135315%)" offset="0.359375"/><stop stop-opacity="1" stop-color="rgb(0.592041%, 37.841797%, 62.661743%)" offset="0.363281"/><stop stop-opacity="1" stop-color="rgb(0.564575%, 38.150024%, 63.189697%)" offset="0.367188"/><stop stop-opacity="1" stop-color="rgb(0.535583%, 38.458252%, 63.717651%)" offset="0.371094"/><stop stop-opacity="1" stop-color="rgb(0.508118%, 38.768005%, 64.245605%)" offset="0.375"/><stop stop-opacity="1" stop-color="rgb(0.479126%, 39.076233%, 64.772034%)" offset="0.378906"/><stop stop-opacity="1" stop-color="rgb(0.45166%, 39.385986%, 65.299988%)" offset="0.382813"/><stop stop-opacity="1" stop-color="rgb(0.422668%, 39.694214%, 65.827942%)" offset="0.386719"/><stop stop-opacity="1" stop-color="rgb(0.395203%, 40.002441%, 66.355896%)" offset="0.390625"/><stop stop-opacity="1" stop-color="rgb(0.366211%, 40.310669%, 66.88385%)" offset="0.394531"/><stop stop-opacity="1" stop-color="rgb(0.337219%, 40.620422%, 67.411804%)" offset="0.398438"/><stop stop-opacity="1" stop-color="rgb(0.308228%, 40.92865%, 67.938232%)" offset="0.402344"/><stop stop-opacity="1" stop-color="rgb(0.280762%, 41.236877%, 68.466187%)" offset="0.40625"/><stop stop-opacity="1" stop-color="rgb(0.25177%, 41.545105%, 68.994141%)" offset="0.410156"/><stop stop-opacity="1" stop-color="rgb(0.224304%, 41.854858%, 69.522095%)" offset="0.414062"/><stop stop-opacity="1" stop-color="rgb(0.195312%, 42.163086%, 70.048523%)" offset="0.417969"/><stop stop-opacity="1" stop-color="rgb(0.167847%, 42.472839%, 70.576477%)" offset="0.421875"/><stop stop-opacity="1" stop-color="rgb(0.138855%, 42.781067%, 71.104431%)" offset="0.425781"/><stop stop-opacity="1" stop-color="rgb(0.109863%, 43.089294%, 71.632385%)" offset="0.429688"/><stop stop-opacity="1" stop-color="rgb(0.0808716%, 43.397522%, 72.158813%)" offset="0.433594"/><stop stop-opacity="1" stop-color="rgb(0.0534058%, 43.707275%, 72.686768%)" offset="0.4375"/><stop stop-opacity="1" stop-color="rgb(0.0610352%, 44.004822%, 73.168945%)" offset="0.441406"/><stop stop-opacity="1" stop-color="rgb(0.0686646%, 44.303894%, 73.651123%)" offset="0.445313"/><stop stop-opacity="1" stop-color="rgb(0.912476%, 44.366455%, 73.074341%)" offset="0.449219"/><stop stop-opacity="1" stop-color="rgb(1.756287%, 44.430542%, 72.499084%)" offset="0.453125"/><stop stop-opacity="1" stop-color="rgb(2.598572%, 44.493103%, 71.922302%)" offset="0.457031"/><stop stop-opacity="1" stop-color="rgb(3.442383%, 44.55719%, 71.347046%)" offset="0.460938"/><stop stop-opacity="1" stop-color="rgb(4.284668%, 44.619751%, 70.770264%)" offset="0.464844"/><stop stop-opacity="1" stop-color="rgb(5.128479%, 44.682312%, 70.195007%)" offset="0.46875"/><stop stop-opacity="1" stop-color="rgb(5.97229%, 44.744873%, 69.618225%)" offset="0.472656"/><stop stop-opacity="1" stop-color="rgb(6.816101%, 44.80896%, 69.041443%)" offset="0.476563"/><stop stop-opacity="1" stop-color="rgb(7.658386%, 44.871521%, 68.464661%)" offset="0.480469"/><stop stop-opacity="1" stop-color="rgb(8.502197%, 44.934082%, 67.889404%)" offset="0.484375"/><stop stop-opacity="1" stop-color="rgb(9.344482%, 44.996643%, 67.312622%)" offset="0.488281"/><stop stop-opacity="1" stop-color="rgb(10.188293%, 45.06073%, 66.737366%)" offset="0.492188"/><stop stop-opacity="1" stop-color="rgb(11.032104%, 45.123291%, 66.160583%)" offset="0.496094"/><stop stop-opacity="1" stop-color="rgb(11.875916%, 45.187378%, 65.585327%)" offset="0.5"/><stop stop-opacity="1" stop-color="rgb(12.718201%, 45.249939%, 65.008545%)" offset="0.503906"/><stop stop-opacity="1" stop-color="rgb(13.562012%, 45.3125%, 64.431763%)" offset="0.507813"/><stop stop-opacity="1" stop-color="rgb(14.404297%, 45.375061%, 63.85498%)" offset="0.511719"/><stop stop-opacity="1" stop-color="rgb(15.248108%, 45.439148%, 63.279724%)" offset="0.515625"/><stop stop-opacity="1" stop-color="rgb(16.091919%, 45.501709%, 62.702942%)" offset="0.519531"/><stop stop-opacity="1" stop-color="rgb(16.93573%, 45.56427%, 62.127686%)" offset="0.523438"/><stop stop-opacity="1" stop-color="rgb(17.778015%, 45.626831%, 61.550903%)" offset="0.527344"/><stop stop-opacity="1" stop-color="rgb(18.621826%, 45.690918%, 60.974121%)" offset="0.53125"/><stop stop-opacity="1" stop-color="rgb(19.464111%, 45.753479%, 60.397339%)" offset="0.535156"/><stop stop-opacity="1" stop-color="rgb(20.307922%, 45.817566%, 59.822083%)" offset="0.539063"/><stop stop-opacity="1" stop-color="rgb(21.151733%, 45.880127%, 59.2453%)" offset="0.542969"/><stop stop-opacity="1" stop-color="rgb(21.995544%, 45.942688%, 58.670044%)" offset="0.546875"/><stop stop-opacity="1" stop-color="rgb(22.83783%, 46.005249%, 58.093262%)" offset="0.550781"/><stop stop-opacity="1" stop-color="rgb(23.681641%, 46.069336%, 57.518005%)" offset="0.554688"/><stop stop-opacity="1" stop-color="rgb(24.523926%, 46.131897%, 56.941223%)" offset="0.558594"/><stop stop-opacity="1" stop-color="rgb(25.367737%, 46.194458%, 56.364441%)" offset="0.5625"/><stop stop-opacity="1" stop-color="rgb(26.211548%, 46.257019%, 55.787659%)" offset="0.566406"/><stop stop-opacity="1" stop-color="rgb(27.055359%, 46.321106%, 55.212402%)" offset="0.570312"/><stop stop-opacity="1" stop-color="rgb(27.897644%, 46.383667%, 54.63562%)" offset="0.574219"/><stop stop-opacity="1" stop-color="rgb(28.741455%, 46.447754%, 54.060364%)" offset="0.578125"/><stop stop-opacity="1" stop-color="rgb(29.58374%, 46.510315%, 53.483582%)" offset="0.582031"/><stop stop-opacity="1" stop-color="rgb(30.427551%, 46.572876%, 52.908325%)" offset="0.585938"/><stop stop-opacity="1" stop-color="rgb(31.271362%, 46.635437%, 52.331543%)" offset="0.589844"/><stop stop-opacity="1" stop-color="rgb(32.115173%, 46.699524%, 51.754761%)" offset="0.59375"/><stop stop-opacity="1" stop-color="rgb(32.957458%, 46.762085%, 51.177979%)" offset="0.597656"/><stop stop-opacity="1" stop-color="rgb(33.80127%, 46.824646%, 50.602722%)" offset="0.601562"/><stop stop-opacity="1" stop-color="rgb(34.645081%, 46.887207%, 50.02594%)" offset="0.605469"/><stop stop-opacity="1" stop-color="rgb(35.488892%, 46.951294%, 49.450684%)" offset="0.609375"/><stop stop-opacity="1" stop-color="rgb(36.331177%, 47.013855%, 48.873901%)" offset="0.613281"/><stop stop-opacity="1" stop-color="rgb(37.174988%, 47.077942%, 48.298645%)" offset="0.617188"/><stop stop-opacity="1" stop-color="rgb(38.017273%, 47.140503%, 47.721863%)" offset="0.621094"/><stop stop-opacity="1" stop-color="rgb(38.861084%, 47.203064%, 47.145081%)" offset="0.625"/><stop stop-opacity="1" stop-color="rgb(39.704895%, 47.265625%, 46.568298%)" offset="0.628906"/><stop stop-opacity="1" stop-color="rgb(40.548706%, 47.329712%, 45.993042%)" offset="0.632812"/><stop stop-opacity="1" stop-color="rgb(41.390991%, 47.392273%, 45.41626%)" offset="0.636719"/><stop stop-opacity="1" stop-color="rgb(42.234802%, 47.45636%, 44.841003%)" offset="0.640625"/><stop stop-opacity="1" stop-color="rgb(43.077087%, 47.518921%, 44.264221%)" offset="0.644531"/><stop stop-opacity="1" stop-color="rgb(43.920898%, 47.581482%, 43.688965%)" offset="0.648438"/><stop stop-opacity="1" stop-color="rgb(44.764709%, 47.644043%, 43.112183%)" offset="0.652344"/><stop stop-opacity="1" stop-color="rgb(45.608521%, 47.70813%, 42.5354%)" offset="0.65625"/><stop stop-opacity="1" stop-color="rgb(46.450806%, 47.770691%, 41.958618%)" offset="0.660156"/><stop stop-opacity="1" stop-color="rgb(47.294617%, 47.833252%, 41.383362%)" offset="0.664063"/><stop stop-opacity="1" stop-color="rgb(48.136902%, 47.895813%, 40.80658%)" offset="0.667969"/><stop stop-opacity="1" stop-color="rgb(48.980713%, 47.9599%, 40.231323%)" offset="0.671875"/><stop stop-opacity="1" stop-color="rgb(49.824524%, 48.022461%, 39.654541%)" offset="0.675781"/><stop stop-opacity="1" stop-color="rgb(50.668335%, 48.086548%, 39.079285%)" offset="0.679688"/><stop stop-opacity="1" stop-color="rgb(51.51062%, 48.149109%, 38.502502%)" offset="0.683594"/><stop stop-opacity="1" stop-color="rgb(52.354431%, 48.21167%, 37.92572%)" offset="0.6875"/><stop stop-opacity="1" stop-color="rgb(53.196716%, 48.274231%, 37.348938%)" offset="0.691406"/><stop stop-opacity="1" stop-color="rgb(54.040527%, 48.338318%, 36.773682%)" offset="0.695313"/><stop stop-opacity="1" stop-color="rgb(54.884338%, 48.400879%, 36.196899%)" offset="0.699219"/><stop stop-opacity="1" stop-color="rgb(55.728149%, 48.46344%, 35.621643%)" offset="0.703125"/><stop stop-opacity="1" stop-color="rgb(56.570435%, 48.526001%, 35.044861%)" offset="0.707031"/><stop stop-opacity="1" stop-color="rgb(57.414246%, 48.590088%, 34.469604%)" offset="0.710938"/><stop stop-opacity="1" stop-color="rgb(58.256531%, 48.652649%, 33.892822%)" offset="0.714844"/><stop stop-opacity="1" stop-color="rgb(59.100342%, 48.716736%, 33.31604%)" offset="0.71875"/><stop stop-opacity="1" stop-color="rgb(59.944153%, 48.779297%, 32.739258%)" offset="0.722656"/><stop stop-opacity="1" stop-color="rgb(60.787964%, 48.841858%, 32.164001%)" offset="0.726563"/><stop stop-opacity="1" stop-color="rgb(61.630249%, 48.904419%, 31.587219%)" offset="0.730469"/><stop stop-opacity="1" stop-color="rgb(62.47406%, 48.968506%, 31.011963%)" offset="0.734375"/><stop stop-opacity="1" stop-color="rgb(63.317871%, 49.031067%, 30.435181%)" offset="0.738281"/><stop stop-opacity="1" stop-color="rgb(64.161682%, 49.093628%, 29.859924%)" offset="0.742188"/><stop stop-opacity="1" stop-color="rgb(65.003967%, 49.156189%, 29.283142%)" offset="0.746094"/><stop stop-opacity="1" stop-color="rgb(65.847778%, 49.220276%, 28.70636%)" offset="0.75"/><stop stop-opacity="1" stop-color="rgb(66.690063%, 49.282837%, 28.129578%)" offset="0.753906"/><stop stop-opacity="1" stop-color="rgb(67.533875%, 49.346924%, 27.554321%)" offset="0.757813"/><stop stop-opacity="1" stop-color="rgb(68.377686%, 49.409485%, 26.977539%)" offset="0.761719"/><stop stop-opacity="1" stop-color="rgb(69.221497%, 49.472046%, 26.402283%)" offset="0.765625"/><stop stop-opacity="1" stop-color="rgb(70.063782%, 49.534607%, 25.8255%)" offset="0.769531"/><stop stop-opacity="1" stop-color="rgb(70.907593%, 49.598694%, 25.248718%)" offset="0.773438"/><stop stop-opacity="1" stop-color="rgb(71.749878%, 49.661255%, 24.671936%)" offset="0.777344"/><stop stop-opacity="1" stop-color="rgb(72.593689%, 49.723816%, 24.09668%)" offset="0.78125"/><stop stop-opacity="1" stop-color="rgb(73.4375%, 49.786377%, 23.519897%)" offset="0.785156"/><stop stop-opacity="1" stop-color="rgb(74.281311%, 49.850464%, 22.944641%)" offset="0.789062"/><stop stop-opacity="1" stop-color="rgb(75.123596%, 49.913025%, 22.367859%)" offset="0.792969"/><stop stop-opacity="1" stop-color="rgb(75.967407%, 49.977112%, 21.792603%)" offset="0.796875"/><stop stop-opacity="1" stop-color="rgb(76.809692%, 50.039673%, 21.21582%)" offset="0.800781"/><stop stop-opacity="1" stop-color="rgb(77.653503%, 50.102234%, 20.639038%)" offset="0.804688"/><stop stop-opacity="1" stop-color="rgb(78.497314%, 50.164795%, 20.062256%)" offset="0.808594"/><stop stop-opacity="1" stop-color="rgb(79.341125%, 50.228882%, 19.487%)" offset="0.8125"/><stop stop-opacity="1" stop-color="rgb(80.183411%, 50.291443%, 18.910217%)" offset="0.816406"/><stop stop-opacity="1" stop-color="rgb(81.027222%, 50.354004%, 18.334961%)" offset="0.820312"/><stop stop-opacity="1" stop-color="rgb(81.869507%, 50.416565%, 17.758179%)" offset="0.824219"/><stop stop-opacity="1" stop-color="rgb(82.713318%, 50.480652%, 17.182922%)" offset="0.828125"/><stop stop-opacity="1" stop-color="rgb(83.505249%, 50.540161%, 16.641235%)" offset="0.832031"/><stop stop-opacity="1" stop-color="rgb(84.298706%, 50.59967%, 16.099548%)" offset="0.835938"/><stop stop-opacity="1" stop-color="rgb(84.298706%, 50.59967%, 16.099548%)" offset="0.84375"/><stop stop-opacity="1" stop-color="rgb(84.298706%, 50.59967%, 16.099548%)" offset="0.875"/><stop stop-opacity="1" stop-color="rgb(84.298706%, 50.59967%, 16.099548%)" offset="1"/></linearGradient><clipPath id="02fc7011fd"><path d="M 1027 867 L 1970 867 L 1970 1810 L 1027 1810 Z M 1027 867 " clip-rule="nonzero"/></clipPath><clipPath id="397974e3ff"><path d="M 1030.667969 853.675781 L 1994.8125 879.875 L 1969.078125 1826.777344 L 1004.933594 1800.574219 Z M 1030.667969 853.675781 " clip-rule="nonzero"/></clipPath><clipPath id="f2d0ad3f9c"><path d="M 1030.667969 853.675781 L 1994.8125 879.875 L 1969.078125 1826.777344 L 1004.933594 1800.574219 Z M 1030.667969 853.675781 " clip-rule="nonzero"/></clipPath></defs><g fill="#081b29" fill-opacity="1"><g transform="translate(867.02563, 2045.083375)"><g><path d="M 77.6875 0 L 46.5625 -48.15625 C 43.425781 -48.207031 39.046875 -48.390625 33.421875 -48.703125 L 33.421875 0 L 11.9375 0 L 11.9375 -116.59375 C 13.101562 -116.59375 17.585938 -116.789062 25.390625 -117.1875 C 33.191406 -117.59375 39.476562 -117.796875 44.25 -117.796875 C 73.851562 -117.796875 88.65625 -106.332031 88.65625 -83.40625 C 88.65625 -76.507812 86.613281 -70.222656 82.53125 -64.546875 C 78.445312 -58.867188 73.300781 -54.863281 67.09375 -52.53125 L 101.5625 0 Z M 33.421875 -98.609375 L 33.421875 -66.21875 C 37.242188 -65.894531 40.164062 -65.734375 42.1875 -65.734375 C 50.832031 -65.734375 57.15625 -66.953125 61.15625 -69.390625 C 65.164062 -71.835938 67.171875 -76.59375 67.171875 -83.65625 C 67.171875 -89.382812 65.019531 -93.390625 60.71875 -95.671875 C 56.425781 -97.953125 49.664062 -99.09375 40.4375 -99.09375 C 38.207031 -99.09375 35.867188 -98.929688 33.421875 -98.609375 Z M 33.421875 -98.609375 "/></g></g></g><g fill="#081b29" fill-opacity="1"><g transform="translate(966.59014, 2045.083375)"><g><path d="M 58.1875 -8.515625 C 56.375 -5.546875 53.226562 -3.117188 48.75 -1.234375 C 44.269531 0.648438 39.585938 1.59375 34.703125 1.59375 C 25.523438 1.59375 18.304688 -0.695312 13.046875 -5.28125 C 7.796875 -9.875 5.171875 -16.390625 5.171875 -24.828125 C 5.171875 -34.703125 8.867188 -42.421875 16.265625 -47.984375 C 23.671875 -53.554688 34.191406 -56.34375 47.828125 -56.34375 C 50.160156 -56.34375 52.921875 -55.945312 56.109375 -55.15625 C 56.109375 -65.1875 49.769531 -70.203125 37.09375 -70.203125 C 29.601562 -70.203125 23.34375 -68.953125 18.3125 -66.453125 L 14.015625 -81.890625 C 20.859375 -85.179688 29 -86.828125 38.4375 -86.828125 C 51.4375 -86.828125 60.960938 -83.867188 67.015625 -77.953125 C 73.066406 -72.035156 76.09375 -60.828125 76.09375 -44.328125 L 76.09375 -26.109375 C 76.09375 -14.753906 78.375 -7.617188 82.9375 -4.703125 C 81.289062 -1.828125 79.457031 -0.0625 77.4375 0.59375 C 75.425781 1.257812 73.117188 1.59375 70.515625 1.59375 C 67.648438 1.59375 65.078125 0.53125 62.796875 -1.59375 C 60.515625 -3.71875 58.976562 -6.023438 58.1875 -8.515625 Z M 56.265625 -40.109375 C 52.867188 -40.796875 50.320312 -41.140625 48.625 -41.140625 C 32.925781 -41.140625 25.078125 -35.992188 25.078125 -25.703125 C 25.078125 -18.066406 29.503906 -14.25 38.359375 -14.25 C 50.296875 -14.25 56.265625 -20.21875 56.265625 -32.15625 Z M 56.265625 -40.109375 "/></g></g></g><g fill="#081b29" fill-opacity="1"><g transform="translate(1053.420581, 2045.083375)"><g><path d="M 20.859375 -68.921875 L 14.25 -77.765625 C 19.1875 -81.523438 22.207031 -84.304688 23.3125 -86.109375 C 24.425781 -87.921875 24.984375 -89.832031 24.984375 -91.84375 C 24.984375 -93.96875 23.679688 -96.328125 21.078125 -98.921875 C 18.484375 -101.523438 17.1875 -104.3125 17.1875 -107.28125 C 17.1875 -115.882812 21.429688 -120.1875 29.921875 -120.1875 C 34.222656 -120.1875 37.550781 -118.804688 39.90625 -116.046875 C 42.269531 -113.285156 43.453125 -109.570312 43.453125 -104.90625 C 43.453125 -90.257812 35.921875 -78.265625 20.859375 -68.921875 Z M 20.859375 -68.921875 "/></g></g></g><g fill="#081b29" fill-opacity="1"><g transform="translate(1113.270707, 2045.083375)"><g><path d="M 79.984375 0 L 71.46875 -23.640625 L 31.515625 -23.640625 L 23.40625 0 L 0.390625 0 L 46.875 -118.1875 L 55.953125 -118.1875 L 102.828125 0 Z M 51.421875 -82.53125 L 37.40625 -39.484375 L 65.421875 -39.484375 Z M 51.421875 -82.53125 "/></g></g></g><g fill="#081b29" fill-opacity="1"><g transform="translate(1216.496272, 2045.083375)"><g><path d="M 5.484375 -5.484375 L 12.578125 -21.328125 C 18.515625 -16.609375 25.226562 -14.25 32.71875 -14.25 C 40.457031 -14.25 44.328125 -17.007812 44.328125 -22.53125 C 44.328125 -25.757812 43.160156 -28.410156 40.828125 -30.484375 C 38.492188 -32.554688 33.957031 -35 27.21875 -37.8125 C 12.519531 -43.90625 5.171875 -52.445312 5.171875 -63.4375 C 5.171875 -70.8125 7.984375 -76.550781 13.609375 -80.65625 C 19.234375 -84.769531 26.421875 -86.828125 35.171875 -86.828125 C 44.035156 -86.828125 52.367188 -84.835938 60.171875 -80.859375 L 54.4375 -65.421875 C 50.082031 -69.140625 44.035156 -71 36.296875 -71 C 29.335938 -71 25.859375 -68.238281 25.859375 -62.71875 C 25.859375 -60.539062 27 -58.578125 29.28125 -56.828125 C 31.570312 -55.078125 36.457031 -52.726562 43.9375 -49.78125 C 51.414062 -46.832031 56.800781 -43.265625 60.09375 -39.078125 C 63.382812 -34.890625 65.03125 -29.820312 65.03125 -23.875 C 65.03125 -15.96875 62.097656 -9.742188 56.234375 -5.203125 C 50.367188 -0.671875 42.394531 1.59375 32.3125 1.59375 C 26.632812 1.59375 22.082031 1.128906 18.65625 0.203125 C 15.238281 -0.722656 10.847656 -2.617188 5.484375 -5.484375 Z M 5.484375 -5.484375 "/></g></g></g><g fill="#081b29" fill-opacity="1"><g transform="translate(1286.692818, 2045.083375)"><g><path d="M 26.34375 -118.265625 C 29.53125 -118.265625 32.25 -117.132812 34.5 -114.875 C 36.757812 -112.625 37.890625 -109.910156 37.890625 -106.734375 C 37.890625 -103.546875 36.757812 -100.820312 34.5 -98.5625 C 32.25 -96.3125 29.53125 -95.1875 26.34375 -95.1875 C 23.15625 -95.1875 20.429688 -96.3125 18.171875 -98.5625 C 15.921875 -100.820312 14.796875 -103.546875 14.796875 -106.734375 C 14.796875 -109.910156 15.921875 -112.625 18.171875 -114.875 C 20.429688 -117.132812 23.15625 -118.265625 26.34375 -118.265625 Z M 16.078125 0 L 16.078125 -68.921875 L 5.171875 -68.921875 L 5.171875 -85.234375 L 36.21875 -85.234375 L 36.21875 0 Z M 16.078125 0 "/></g></g></g><g fill="#081b29" fill-opacity="1"><g transform="translate(1335.32105, 2045.083375)"><g><path d="M 5.484375 -5.484375 L 12.578125 -21.328125 C 18.515625 -16.609375 25.226562 -14.25 32.71875 -14.25 C 40.457031 -14.25 44.328125 -17.007812 44.328125 -22.53125 C 44.328125 -25.757812 43.160156 -28.410156 40.828125 -30.484375 C 38.492188 -32.554688 33.957031 -35 27.21875 -37.8125 C 12.519531 -43.90625 5.171875 -52.445312 5.171875 -63.4375 C 5.171875 -70.8125 7.984375 -76.550781 13.609375 -80.65625 C 19.234375 -84.769531 26.421875 -86.828125 35.171875 -86.828125 C 44.035156 -86.828125 52.367188 -84.835938 60.171875 -80.859375 L 54.4375 -65.421875 C 50.082031 -69.140625 44.035156 -71 36.296875 -71 C 29.335938 -71 25.859375 -68.238281 25.859375 -62.71875 C 25.859375 -60.539062 27 -58.578125 29.28125 -56.828125 C 31.570312 -55.078125 36.457031 -52.726562 43.9375 -49.78125 C 51.414062 -46.832031 56.800781 -43.265625 60.09375 -39.078125 C 63.382812 -34.890625 65.03125 -29.820312 65.03125 -23.875 C 65.03125 -15.96875 62.097656 -9.742188 56.234375 -5.203125 C 50.367188 -0.671875 42.394531 1.59375 32.3125 1.59375 C 26.632812 1.59375 22.082031 1.128906 18.65625 0.203125 C 15.238281 -0.722656 10.847656 -2.617188 5.484375 -5.484375 Z M 5.484375 -5.484375 "/></g></g></g><g fill="#081b29" fill-opacity="1"><g transform="translate(1405.517595, 2045.083375)"><g/></g></g><g fill="#081b29" fill-opacity="1"><g transform="translate(1454.623367, 2045.083375)"><g><path d="M 6.375 -6.453125 L 14.015625 -24.984375 C 22.179688 -19.253906 30.21875 -16.390625 38.125 -16.390625 C 50.269531 -16.390625 56.34375 -20.632812 56.34375 -29.125 C 56.34375 -33.101562 54.910156 -36.894531 52.046875 -40.5 C 49.179688 -44.113281 43.28125 -48.160156 34.34375 -52.640625 C 25.40625 -57.128906 19.382812 -60.816406 16.28125 -63.703125 C 13.175781 -66.597656 10.785156 -70.035156 9.109375 -74.015625 C 7.441406 -77.992188 6.609375 -82.398438 6.609375 -87.234375 C 6.609375 -96.253906 9.910156 -103.734375 16.515625 -109.671875 C 23.117188 -115.617188 31.59375 -118.59375 41.9375 -118.59375 C 55.414062 -118.59375 65.3125 -116.070312 71.625 -111.03125 L 65.34375 -93.203125 C 58.070312 -98.398438 50.40625 -101 42.34375 -101 C 37.5625 -101 33.859375 -99.738281 31.234375 -97.21875 C 28.609375 -94.695312 27.296875 -91.421875 27.296875 -87.390625 C 27.296875 -80.703125 34.695312 -73.75 49.5 -66.53125 C 57.300781 -62.71875 62.925781 -59.203125 66.375 -55.984375 C 69.820312 -52.773438 72.445312 -49.035156 74.25 -44.765625 C 76.0625 -40.492188 76.96875 -35.734375 76.96875 -30.484375 C 76.96875 -21.035156 73.238281 -13.257812 65.78125 -7.15625 C 58.320312 -1.0625 48.332031 1.984375 35.8125 1.984375 C 24.9375 1.984375 15.125 -0.828125 6.375 -6.453125 Z M 6.375 -6.453125 "/></g></g></g><g fill="#081b29" fill-opacity="1"><g transform="translate(1537.951961, 2045.083375)"><g><path d="M 5.171875 -42.8125 C 5.171875 -55.8125 8.925781 -66.394531 16.4375 -74.5625 C 23.945312 -82.738281 33.851562 -86.828125 46.15625 -86.828125 C 59.101562 -86.828125 69.160156 -82.898438 76.328125 -75.046875 C 83.492188 -67.203125 87.078125 -56.457031 87.078125 -42.8125 C 87.078125 -29.226562 83.425781 -18.429688 76.125 -10.421875 C 68.832031 -2.410156 58.84375 1.59375 46.15625 1.59375 C 33.21875 1.59375 23.148438 -2.453125 15.953125 -10.546875 C 8.765625 -18.640625 5.171875 -29.394531 5.171875 -42.8125 Z M 25.859375 -42.8125 C 25.859375 -24.03125 32.625 -14.640625 46.15625 -14.640625 C 52.363281 -14.640625 57.285156 -17.082031 60.921875 -21.96875 C 64.554688 -26.851562 66.375 -33.800781 66.375 -42.8125 C 66.375 -61.332031 59.632812 -70.59375 46.15625 -70.59375 C 39.945312 -70.59375 35.007812 -68.148438 31.34375 -63.265625 C 27.6875 -58.390625 25.859375 -51.570312 25.859375 -42.8125 Z M 25.859375 -42.8125 "/></g></g></g><g fill="#081b29" fill-opacity="1"><g transform="translate(1630.194358, 2045.083375)"><g><path d="M 58.265625 -101.953125 C 53.910156 -103.390625 50.566406 -104.109375 48.234375 -104.109375 C 44.460938 -104.109375 41.265625 -102.488281 38.640625 -99.25 C 36.015625 -96.007812 34.703125 -92.03125 34.703125 -87.3125 C 34.703125 -86.625 34.726562 -85.929688 34.78125 -85.234375 L 52.453125 -85.234375 L 52.453125 -68.84375 L 35.09375 -68.84375 L 35.09375 0 L 15.203125 0 L 15.203125 -68.84375 L 2.78125 -68.84375 L 2.78125 -85.234375 L 15.28125 -85.234375 C 15.707031 -95.691406 18.796875 -104.128906 24.546875 -110.546875 C 30.304688 -116.972656 37.75 -120.1875 46.875 -120.1875 C 51.601562 -120.1875 57.363281 -119.148438 64.15625 -117.078125 Z M 58.265625 -101.953125 "/></g></g></g><g fill="#081b29" fill-opacity="1"><g transform="translate(1690.442463, 2045.083375)"><g><path d="M 13.765625 -69.25 L 3.90625 -69.25 L 3.90625 -85.234375 L 13.765625 -85.234375 L 13.765625 -102.59375 L 33.671875 -109.90625 L 33.671875 -85.234375 L 57.0625 -85.234375 L 57.0625 -69.25 L 33.671875 -69.25 L 33.671875 -31.921875 C 33.671875 -25.816406 34.625 -21.503906 36.53125 -18.984375 C 38.4375 -16.460938 41.78125 -15.203125 46.5625 -15.203125 C 51.332031 -15.203125 55.789062 -16.503906 59.9375 -19.109375 L 59.9375 -0.796875 C 55.3125 0.796875 48.726562 1.59375 40.1875 1.59375 C 31.695312 1.59375 25.171875 -0.804688 20.609375 -5.609375 C 16.046875 -10.410156 13.765625 -17.242188 13.765625 -26.109375 Z M 13.765625 -69.25 "/></g></g></g><g fill="#081b29" fill-opacity="1"><g transform="translate(1755.067887, 2045.083375)"><g><path d="M 94.46875 1.59375 L 87.234375 1.59375 L 63.828125 -50.78125 L 40.515625 1.59375 L 33.1875 1.59375 L 1.03125 -85.234375 L 21.96875 -85.234375 L 39.078125 -34.390625 L 59.9375 -85.234375 L 67.09375 -85.234375 L 88.65625 -34.0625 L 107.125 -85.234375 L 126.703125 -85.234375 Z M 94.46875 1.59375 "/></g></g></g><g fill="#081b29" fill-opacity="1"><g transform="translate(1882.806561, 2045.083375)"><g><path d="M 58.1875 -8.515625 C 56.375 -5.546875 53.226562 -3.117188 48.75 -1.234375 C 44.269531 0.648438 39.585938 1.59375 34.703125 1.59375 C 25.523438 1.59375 18.304688 -0.695312 13.046875 -5.28125 C 7.796875 -9.875 5.171875 -16.390625 5.171875 -24.828125 C 5.171875 -34.703125 8.867188 -42.421875 16.265625 -47.984375 C 23.671875 -53.554688 34.191406 -56.34375 47.828125 -56.34375 C 50.160156 -56.34375 52.921875 -55.945312 56.109375 -55.15625 C 56.109375 -65.1875 49.769531 -70.203125 37.09375 -70.203125 C 29.601562 -70.203125 23.34375 -68.953125 18.3125 -66.453125 L 14.015625 -81.890625 C 20.859375 -85.179688 29 -86.828125 38.4375 -86.828125 C 51.4375 -86.828125 60.960938 -83.867188 67.015625 -77.953125 C 73.066406 -72.035156 76.09375 -60.828125 76.09375 -44.328125 L 76.09375 -26.109375 C 76.09375 -14.753906 78.375 -7.617188 82.9375 -4.703125 C 81.289062 -1.828125 79.457031 -0.0625 77.4375 0.59375 C 75.425781 1.257812 73.117188 1.59375 70.515625 1.59375 C 67.648438 1.59375 65.078125 0.53125 62.796875 -1.59375 C 60.515625 -3.71875 58.976562 -6.023438 58.1875 -8.515625 Z M 56.265625 -40.109375 C 52.867188 -40.796875 50.320312 -41.140625 48.625 -41.140625 C 32.925781 -41.140625 25.078125 -35.992188 25.078125 -25.703125 C 25.078125 -18.066406 29.503906 -14.25 38.359375 -14.25 C 50.296875 -14.25 56.265625 -20.21875 56.265625 -32.15625 Z M 56.265625 -40.109375 "/></g></g></g><g fill="#081b29" fill-opacity="1"><g transform="translate(1969.637002, 2045.083375)"><g><path d="M 60.015625 -66.703125 C 56.453125 -69.035156 52.550781 -70.203125 48.3125 -70.203125 C 43.695312 -70.203125 39.597656 -68.101562 36.015625 -63.90625 C 32.429688 -59.71875 30.640625 -54.597656 30.640625 -48.546875 L 30.640625 0 L 10.75 0 L 10.75 -85.234375 L 30.640625 -85.234375 L 30.640625 -77.4375 C 36.210938 -83.695312 43.613281 -86.828125 52.84375 -86.828125 C 59.632812 -86.828125 64.835938 -85.796875 68.453125 -83.734375 Z M 60.015625 -66.703125 "/></g></g></g><g fill="#081b29" fill-opacity="1"><g transform="translate(2039.276495, 2045.083375)"><g><path d="M 86.828125 -36.53125 L 25.953125 -36.53125 C 26.316406 -29.738281 28.644531 -24.457031 32.9375 -20.6875 C 37.238281 -16.925781 43.023438 -15.046875 50.296875 -15.046875 C 59.367188 -15.046875 66.269531 -17.40625 71 -22.125 L 78.71875 -6.921875 C 71.707031 -1.242188 61.253906 1.59375 47.359375 1.59375 C 34.359375 1.59375 24.078125 -2.210938 16.515625 -9.828125 C 8.953125 -17.441406 5.171875 -28.066406 5.171875 -41.703125 C 5.171875 -55.128906 9.320312 -66.003906 17.625 -74.328125 C 25.925781 -82.660156 35.890625 -86.828125 47.515625 -86.828125 C 59.878906 -86.828125 69.800781 -83.140625 77.28125 -75.765625 C 84.757812 -68.390625 88.5 -59 88.5 -47.59375 C 88.5 -45.15625 87.941406 -41.46875 86.828125 -36.53125 Z M 26.65625 -51.5 L 68.53125 -51.5 C 67.144531 -63.96875 60.242188 -70.203125 47.828125 -70.203125 C 36.472656 -70.203125 29.414062 -63.96875 26.65625 -51.5 Z M 26.65625 -51.5 "/></g></g></g><g clip-path="url(#2b95450071)"><g clip-path="url(#f651cb374d)"><g clip-path="url(#2f38944777)"><g clip-path="url(#09b27d2560)"><path fill="url(#225dfcab92)" d="M 1260.609375 843.265625 L 1047.621094 1615.453125 L 1838.40625 1833.570312 L 2051.394531 1061.382812 Z M 1260.609375 843.265625 " fill-rule="nonzero"/></g></g></g></g><g clip-path="url(#02fc7011fd)"><g clip-path="url(#397974e3ff)"><g clip-path="url(#f2d0ad3f9c)"><path fill="#d78129" d="M 1170.832031 1396.554688 C 1168.863281 1385.46875 1167.429688 1374.246094 1166.597656 1363.042969 C 1165.726562 1351.574219 1165.453125 1340.265625 1165.753906 1329.214844 C 1166.820312 1290.027344 1174.820312 1251.585938 1189.101562 1215.605469 C 1203.382812 1179.628906 1223.925781 1146.140625 1250.078125 1116.859375 L 1267.875 1132.773438 C 1243.59375 1159.980469 1224.542969 1191.023438 1211.296875 1224.347656 C 1198.078125 1257.675781 1190.660156 1293.355469 1189.667969 1329.863281 C 1189.375 1340.554688 1189.621094 1351.042969 1190.382812 1361.253906 C 1191.160156 1371.730469 1192.472656 1382.125 1194.316406 1392.4375 Z M 1209.859375 1611.296875 C 1158.3125 1556.871094 1124.289062 1490.238281 1109.523438 1419.59375 C 1094.730469 1348.96875 1099.199219 1274.304688 1124.585938 1203.785156 L 1160.578125 1216.714844 C 1137.621094 1280.445312 1133.613281 1347.949219 1146.96875 1411.796875 C 1160.328125 1475.621094 1191.074219 1535.832031 1237.644531 1585.007812 Z M 1528.363281 1734.125 C 1475.515625 1738.144531 1423.003906 1731.550781 1373.726562 1715.289062 C 1324.449219 1699.027344 1278.285156 1673.019531 1238.179688 1638.269531 L 1263.179688 1609.488281 C 1299.277344 1640.773438 1340.992188 1664.21875 1385.628906 1678.957031 C 1430.289062 1693.691406 1477.792969 1699.667969 1525.511719 1696.039062 Z M 1095.46875 1473.808594 C 1069.882812 1397.820312 1066.816406 1317.832031 1084.195312 1242.578125 C 1101.597656 1167.347656 1139.496094 1096.828125 1195.835938 1039.753906 L 1202.609375 1046.433594 C 1147.535156 1102.214844 1110.476562 1171.140625 1093.484375 1244.691406 C 1076.488281 1318.242188 1079.507812 1396.441406 1104.507812 1470.769531 Z M 1284 971.324219 C 1296.539062 964.011719 1309.347656 957.378906 1322.378906 951.457031 C 1335.460938 945.507812 1348.910156 940.222656 1362.582031 935.597656 C 1410.105469 919.597656 1459.757812 912.253906 1509.175781 913.550781 C 1558.570312 914.84375 1607.757812 924.753906 1654.390625 943.1875 L 1650.890625 952.078125 C 1605.257812 934.03125 1557.179688 924.34375 1508.917969 923.082031 C 1460.65625 921.816406 1412.117188 929 1365.617188 944.664062 C 1352.289062 949.152344 1339.15625 954.328125 1326.320312 960.160156 C 1313.410156 966.015625 1300.871094 972.507812 1288.773438 979.566406 Z M 1711.355469 970.792969 C 1733.367188 983.5625 1754.171875 998.253906 1773.429688 1014.664062 C 1792.710938 1031.078125 1810.546875 1049.214844 1826.671875 1068.898438 L 1819.289062 1074.929688 C 1803.535156 1055.714844 1786.101562 1037.972656 1767.242188 1021.933594 C 1748.363281 1005.871094 1728.058594 991.507812 1706.566406 979.042969 Z M 1861.648438 1118.335938 C 1869.714844 1131.667969 1877.019531 1145.390625 1883.542969 1159.429688 C 1890.089844 1173.515625 1895.855469 1187.96875 1900.816406 1202.734375 C 1937.707031 1312.328125 1927.378906 1426.628906 1880.609375 1523.300781 C 1833.839844 1619.972656 1750.628906 1699.015625 1641.820312 1738.125 L 1638.585938 1729.152344 C 1744.957031 1690.917969 1826.308594 1613.660156 1872.03125 1519.15625 C 1917.75 1424.652344 1927.835938 1312.929688 1891.773438 1205.796875 C 1886.925781 1191.394531 1881.273438 1177.261719 1874.886719 1163.492188 C 1868.5 1149.699219 1861.328125 1136.269531 1853.496094 1123.308594 Z M 1501.664062 1763.101562 C 1423.988281 1763.742188 1349.207031 1743.140625 1284.429688 1705.449219 C 1219.628906 1667.730469 1164.808594 1612.875 1127 1545.03125 L 1135.335938 1540.40625 C 1172.289062 1606.726562 1225.890625 1660.34375 1289.21875 1697.199219 C 1352.546875 1734.054688 1425.648438 1754.175781 1501.585938 1753.558594 Z M 1202.230469 1704.589844 C 1133.09375 1648.742188 1082.601562 1575.75 1054.105469 1494.996094 C 1025.609375 1414.269531 1019.078125 1325.761719 1037.8125 1238.902344 L 1061.144531 1243.933594 C 1043.351562 1326.46875 1049.519531 1410.476562 1076.585938 1487.109375 C 1103.625 1563.714844 1151.558594 1632.96875 1217.222656 1686.019531 Z M 1079.5625 1122.488281 C 1086.878906 1108.316406 1094.910156 1094.484375 1103.628906 1081.125 C 1112.347656 1067.742188 1121.777344 1054.765625 1131.824219 1042.335938 C 1166.757812 999.097656 1208.820312 962.691406 1255.828125 934.507812 C 1302.789062 906.324219 1354.671875 886.3125 1409.289062 875.820312 L 1413.796875 899.222656 C 1361.945312 909.1875 1312.675781 928.179688 1268.097656 954.929688 C 1223.542969 981.683594 1183.605469 1016.214844 1150.421875 1057.332031 C 1140.875 1069.144531 1131.945312 1081.410156 1123.679688 1094.105469 C 1115.414062 1106.777344 1107.765625 1119.921875 1100.804688 1133.449219 Z M 1478.933594 867.714844 C 1507.097656 866.574219 1535.265625 867.941406 1563.074219 871.8125 C 1590.90625 875.6875 1618.40625 882.035156 1645.140625 890.828125 L 1637.691406 913.539062 C 1612.25 905.195312 1586.164062 899.148438 1559.796875 895.488281 C 1533.382812 891.824219 1506.617188 890.492188 1479.878906 891.601562 Z M 1707.257812 916.277344 C 1722.769531 923.964844 1737.773438 932.464844 1752.207031 941.695312 C 1766.613281 950.921875 1780.585938 961.011719 1794.078125 971.90625 C 1893.816406 1052.46875 1952.152344 1165.519531 1965.9375 1283.734375 C 1979.703125 1401.949219 1948.914062 1525.375 1870.386719 1626.6875 L 1851.539062 1612.074219 C 1926.0625 1515.890625 1955.304688 1398.699219 1942.199219 1286.445312 C 1929.121094 1174.214844 1873.742188 1066.894531 1779.085938 990.453125 C 1766.445312 980.234375 1753.15625 970.671875 1739.320312 961.796875 C 1725.507812 952.945312 1711.261719 944.878906 1696.65625 937.648438 Z M 1754.207031 1733.476562 C 1681.917969 1780.3125 1599.734375 1805.5625 1516.769531 1808.835938 C 1433.757812 1812.109375 1349.84375 1793.457031 1274.121094 1752.496094 L 1285.4375 1731.484375 C 1357.332031 1770.359375 1436.996094 1788.097656 1515.824219 1784.976562 C 1594.679688 1781.855469 1672.722656 1757.921875 1741.277344 1713.492188 Z M 1172.550781 1111.175781 C 1180.339844 1100.015625 1188.597656 1089.351562 1197.296875 1079.273438 C 1206.324219 1068.796875 1215.621094 1059.007812 1225.140625 1049.992188 C 1259.144531 1017.785156 1298.382812 992.097656 1340.875 973.765625 C 1383.292969 955.453125 1428.886719 944.546875 1475.664062 941.882812 L 1477.765625 980.066406 C 1435.417969 982.464844 1394.195312 992.332031 1355.90625 1008.871094 C 1317.691406 1025.363281 1282.261719 1048.597656 1251.429688 1077.777344 C 1242.332031 1086.390625 1233.90625 1095.191406 1226.203125 1104.136719 C 1218.175781 1113.457031 1210.667969 1123.105469 1203.808594 1132.964844 Z M 1172.550781 1111.175781 " fill-opacity="1" fill-rule="nonzero"/></g></g></g></svg>