<svg xmlns="http://www.w3.org/2000/svg" version="1.1" xmlns:xlink="http://www.w3.org/1999/xlink" xmlns:svgjs="http://svgjs.dev/svgjs" width="1500" height="155" viewBox="0 0 1500 155"><g transform="matrix(1,0,0,1,-0.9090909090909918,0.6693022006285361)"><svg viewBox="0 0 396 41" data-background-color="#ffffff" preserveAspectRatio="xMidYMid meet" height="155" width="1500" xmlns="http://www.w3.org/2000/svg" xmlns:xlink="http://www.w3.org/1999/xlink"><g id="tight-bounds" transform="matrix(1,0,0,1,0.2400000000000091,-0.1770412272630324)"><svg viewBox="0 0 395.52 41.354082454526065" height="41.354082454526065" width="395.52"><g><svg viewBox="0 0 460.70752829069363 48.16984504539403" height="41.354082454526065" width="395.52"><g transform="matrix(1,0,0,1,0,6.657337484566035)"><svg viewBox="0 0 395.52 34.855170076261956" height="34.855170076261956" width="395.52"><g id="textblocktransform"><svg viewBox="0 0 395.52 34.855170076261956" height="34.855170076261956" width="395.52" id="textblock"><g><svg viewBox="0 0 395.52 34.855170076261956" height="34.855170076261956" width="395.52"><g transform="matrix(1,0,0,1,0,0)"><svg width="395.52" viewBox="2.25 -35.7 416.47 36.400000000000006" height="34.855170076261956" data-palette-color="#3d3d3d"><g class="wordmark-text-0" data-fill-palette-color="primary" id="text-0"><path d="M28.75-2.55L28.75 0 2.25 0 2.25-1 24.55-34Q23.75-34 20.9-33.8L20.9-33.8 3.55-32.55 3.55-35 28.55-35 28.55-34 6.25-1Q7.1-1 9.9-1.2L9.9-1.2 28.75-2.55ZM53.45 0L38.05 0 38.05-35 53.3-35 53.3-32.55 44.55-33.7Q42.25-34 41.45-34L41.45-34 41.45-18.75Q42.1-18.75 44.55-18.9L44.55-18.9 52.75-19.4 52.75-17.1 44.55-17.6Q42.1-17.75 41.45-17.75L41.45-17.75 41.45-1Q42.35-1 44.6-1.3L44.6-1.3 53.45-2.45 53.45 0ZM73.45 0.7L59.05-35 62.7-35 74.95-4.4 75.25-4.4 83.25-24.2 78.9-35 82.55-35 94.75-4.5 95.05-4.5 105.15-35 108.8-35 94.4 0.7 93.3 0.7 83.95-22.55 74.55 0.7 73.45 0.7ZM115.04 0L111.39 0 124.84-35 127.94-35 141.39 0 137.74 0 131.54-16.4 120.19-16.4 115.04 0ZM125.49-32.4L125.19-32.4 120.54-17.6 131.09-17.6 125.49-32.4ZM160.59 0L156.99 0 156.99-14.8 144.59-35 148.39-35 159.54-16.7 159.84-16.7 168.74-35 172.54-35 160.59-15.5 160.59 0Z" fill="#3d3d3d" data-fill-palette-color="primary"></path><path d="M200.64 0L192.54 0 192.54-35 199.49-35Q204.89-35 207.89-32.75 210.89-30.5 210.89-26.5L210.89-26.5Q210.89-23.55 209.14-21.48 207.39-19.4 204.24-18.65L204.24-18.65 204.24-18.35Q208.54-17.8 210.96-15.38 213.39-12.95 213.39-9.25L213.39-9.25Q213.39-4.9 210.04-2.45 206.69 0 200.64 0L200.64 0ZM199.54-33.8L199.54-33.8 195.94-33.8 195.94-18.8 199.49-18.8Q207.39-18.8 207.39-26.3L207.39-26.3Q207.39-33.8 199.54-33.8ZM200.64-17.6L200.64-17.6 195.94-17.6 195.94-1.2 200.64-1.2Q209.79-1.2 209.79-9.4L209.79-9.4Q209.79-17.6 200.64-17.6ZM222.89-14L222.89-35 226.29-35 226.29-13.9Q226.29-7.85 229.26-4.48 232.24-1.1 237.63-1.1L237.63-1.1Q241.04-1.1 243.56-2.43 246.09-3.75 247.46-6.1 248.84-8.45 248.74-11.5L248.74-11.5 247.88-35 251.29-35 250.44-11.5Q250.24-5.5 246.86-2.4 243.49 0.7 237.24 0.7L237.24 0.7Q230.49 0.7 226.69-3.23 222.89-7.15 222.89-14L222.89-14ZM266.68 0L263.28 0 263.28-35 266.68-35 266.68 0ZM279.68 0L279.68-35 283.08-35 283.08-1Q284.03-1 286.08-1.3L286.08-1.3 294.38-2.55 294.38 0 279.68 0ZM313.73 0L302.73 0 302.73-35 313.73-35Q319.53-35 323.83-32.8 328.13-30.6 330.53-26.68 332.93-22.75 332.93-17.5L332.93-17.5Q332.93-12.25 330.53-8.33 328.13-4.4 323.83-2.2 319.53 0 313.73 0L313.73 0ZM313.73-33.8L313.73-33.8 306.13-33.8 306.13-1.2 313.73-1.2Q320.98-1.2 325.05-5.5 329.13-9.8 329.13-17.5L329.13-17.5Q329.13-25.2 325.05-29.5 320.98-33.8 313.73-33.8ZM358.83 0L343.43 0 343.43-35 358.68-35 358.68-32.55 349.93-33.7Q347.63-34 346.83-34L346.83-34 346.83-18.75Q347.48-18.75 349.93-18.9L349.93-18.9 358.13-19.4 358.13-17.1 349.93-17.6Q347.48-17.75 346.83-17.75L346.83-17.75 346.83-1Q347.73-1 349.98-1.3L349.98-1.3 358.83-2.45 358.83 0ZM369.32 0L369.32-35 376.02-35Q381.32-35 384.25-32.77 387.17-30.55 387.17-26.55L387.17-26.55Q387.17-23.45 385.35-21.4 383.52-19.35 380.07-18.65L380.07-18.65 380.07-18.35Q383.37-17.7 385.47-15.25 387.57-12.8 388.62-9.2L388.62-9.2Q389.57-5.9 390.5-4.08 391.42-2.25 392.55-1.45 393.67-0.65 395.22-0.3L395.22-0.3 395.22 0 393.17 0Q390.97 0 389.55-0.8 388.12-1.6 387.12-3.5 386.12-5.4 385.22-8.75L385.22-8.75Q383.77-13.9 381.37-16.05 378.97-18.2 375.52-18.2L375.52-18.2 375.22-18.2 375.22-19.1 375.52-19.1Q383.57-19.1 383.57-26.5L383.57-26.5Q383.57-33.8 376.02-33.8L376.02-33.8 372.72-33.8 372.72 0 369.32 0ZM398.37-1.1L398.37-1.1 398.67-4.1 398.97-4.1Q400.92-2.4 403.37-1.45 405.82-0.5 408.22-0.5L408.22-0.5Q411.62-0.5 413.72-2.38 415.82-4.25 415.82-7.4L415.82-7.4Q415.82-9.15 415.05-10.65 414.27-12.15 412.5-13.7 410.72-15.25 407.62-17.05L407.62-17.05Q405.47-18.3 403.52-19.68 401.57-21.05 400.32-22.88 399.07-24.7 399.07-27.25L399.07-27.25Q399.07-31.05 401.82-33.38 404.57-35.7 409.07-35.7L409.07-35.7Q411.07-35.7 413.37-35.27 415.67-34.85 416.92-34.2L416.92-34.2 416.67-31.4 416.37-31.4Q413.52-34.5 409.07-34.5L409.07-34.5Q405.87-34.5 403.92-32.88 401.97-31.25 401.97-28.5L401.97-28.5Q401.97-26.45 403.05-24.98 404.12-23.5 405.82-22.33 407.52-21.15 409.47-20.05L409.47-20.05Q411.72-18.75 413.85-17.3 415.97-15.85 417.35-13.83 418.72-11.8 418.72-8.75L418.72-8.75Q418.72-5.95 417.42-3.83 416.12-1.7 413.75-0.5 411.37 0.7 408.22 0.7L408.22 0.7Q406.22 0.7 403.52 0.2 400.82-0.3 398.37-1.1Z" fill="#ffc604" data-fill-palette-color="secondary"></path></g></svg></g></svg></g></svg></g></svg></g><g transform="matrix(1,0,0,1,403.7484691309236,0)"><svg viewBox="0 0 56.95905915977003 48.16984504539403" height="48.16984504539403" width="56.95905915977003"><g><svg xmlns="http://www.w3.org/2000/svg" xmlns:xlink="http://www.w3.org/1999/xlink" version="1.1" x="0" y="0" viewBox="0.00008318739570275374 0 276.25291681260427 233.62500000000003" enable-background="new 0 0 276.252 233.625" xml:space="preserve" width="56.95905915977003" height="48.16984504539403" class="icon-icon-0" data-fill-palette-color="accent" id="icon-0"><g fill="#ffd700" data-fill-palette-color="accent"><path d="M150.59 45.375c12.504 0 22.693-10.143 22.693-22.677C173.284 10.173 163.094 0 150.59 0c-12.56 0-22.707 10.173-22.707 22.698C127.884 35.232 138.031 45.375 150.59 45.375z" fill="#ffd700" data-fill-palette-color="accent"></path><path d="M145.064 197.108c-3.314 2.213-8.893 6.08-8.893 6.08l-2.761 6.633-3.863 4.416h-7.19l-17.175 12.76h171.071l-7.735-7.761-6.131-6.105-9.942 0.554-6.629-7.182c0 0-4.974-8.288-4.974-9.969 0-1.655 1.11-7.765-0.557-8.837-1.655-1.132-7.225-4.45-7.225-4.45l-13.262 0.554-7.228-8.837-7.19-9.973-8.841-1.681c0 0-5.569 0.553-7.73 3.314-2.26 2.786-7.229 4.994-12.202 7.229-1.391 0.618-2.825 1.323-4.175 2.018l-66.913-54.536 32.312-62.644-32.649-47.063H36.526l-9.02 46.124L14.173 46.885c-2.863-2.31-7.029-1.91-9.394 0.953-2.31 2.863-1.855 7.033 1.013 9.343l25.878 21.096L15.373 95.88l1.217 61.397L0.465 216.875c-1.915 7.08 2.259 14.389 9.338 16.295 1.153 0.307 2.357 0.455 3.463 0.455 5.88 0 11.253-3.893 12.861-9.819l17.074-63.286 2.604-47.849 33.964 40.089-31.692 58.465c-3.467 6.48-1.106 14.543 5.369 18.031 2.013 1.106 4.174 1.608 6.335 1.608 4.718 0 9.288-2.511 11.696-6.956l40.286-74.412-16.152-19.094 66.632 54.318-4.475 6.262C157.768 190.982 148.377 194.879 145.064 197.108zM86.666 105.97L72.921 94.767l25.636-11.169L86.666 105.97zM52.591 35.985l16.584 2.208L47.622 60.342 52.591 35.985z" fill="#ffd700" data-fill-palette-color="accent"></path></g></svg></g></svg></g></svg></g><defs></defs></svg><rect width="395.52" height="41.354082454526065" fill="none" stroke="none" visibility="hidden"></rect></g></svg></g></svg>